<svg width="318" height="281" viewBox="0 0 318 281" fill="none" xmlns="http://www.w3.org/2000/svg">
<g clip-path="url(#clip0_2510_4453)">
<path d="M47.8906 247.799L53.2712 283.16H84.5306L91.7873 248.314L47.8906 247.799Z" fill="#CCCCCC"/>
<path d="M87.4181 270.472C87.4181 270.573 79.4045 270.656 69.5274 270.656C59.6503 270.656 51.6367 270.573 51.6367 270.472C51.6367 270.37 59.644 270.287 69.5274 270.287C79.4108 270.287 87.4181 270.357 87.4181 270.472Z" fill="#FAFAFA"/>
<path d="M87.5387 268.722C87.5387 268.823 79.4742 268.906 69.5271 268.906C59.5801 268.906 51.5156 268.823 51.5156 268.722C51.5156 268.62 59.5801 268.537 69.5271 268.537C79.4742 268.537 87.5387 268.62 87.5387 268.722Z" fill="#FAFAFA"/>
<path d="M87.4742 266.757C87.4742 266.858 79.4097 266.941 69.4627 266.941C59.5157 266.941 51.4512 266.858 51.4512 266.757C51.4512 266.655 59.5157 266.572 69.4627 266.572C79.4097 266.572 87.4742 266.655 87.4742 266.757Z" fill="#FAFAFA"/>
<path d="M56.8648 281.137C56.4215 279.682 56.1003 278.193 55.9045 276.685C55.5823 275.201 55.3824 273.693 55.3066 272.176C55.7464 273.631 56.0675 275.12 56.267 276.628C56.5817 278.113 56.7815 279.621 56.8648 281.137Z" fill="#FAFAFA"/>
<path d="M58.988 280.763C58.6679 277.872 58.4706 274.97 58.3965 272.062C58.7341 273.485 58.9259 274.938 58.9689 276.4C59.1299 277.85 59.1363 279.312 58.988 280.763Z" fill="#FAFAFA"/>
<path d="M62.8607 280.761C62.1263 277.827 61.7736 274.811 61.8113 271.787C62.1074 273.258 62.3198 274.744 62.4473 276.239C62.7017 278.739 62.9625 280.742 62.8607 280.761Z" fill="#FAFAFA"/>
<path d="M65.5829 280.953C65.2878 279.461 65.1429 277.944 65.1504 276.424C65.0393 274.908 65.0862 273.384 65.2903 271.877C65.4536 273.383 65.53 274.897 65.5193 276.412C65.6266 277.923 65.6478 279.439 65.5829 280.953Z" fill="#FAFAFA"/>
<path d="M70.3972 280.763C70.1697 279.343 70.0612 277.907 70.0728 276.47C69.9617 275.036 69.9745 273.596 70.111 272.164C70.4479 275.017 70.5436 277.894 70.3972 280.763Z" fill="#FAFAFA"/>
<path d="M73.9213 280.953C73.7466 279.476 73.6955 277.986 73.7687 276.501C73.7222 275.013 73.7966 273.524 73.9913 272.049C74.1617 273.526 74.2106 275.015 74.1375 276.501C74.1837 277.988 74.1114 279.477 73.9213 280.953Z" fill="#FAFAFA"/>
<path d="M77.2157 280.476C77.1825 278.924 77.2719 277.371 77.4828 275.833C77.5775 274.284 77.7901 272.745 78.1188 271.229C78.0623 274.33 77.7624 277.422 77.2221 280.476H77.2157Z" fill="#FAFAFA"/>
<path d="M81.4707 280.011C81.6086 277.351 82.1779 274.73 83.1561 272.252C82.9647 273.562 82.6971 274.859 82.3547 276.138C82.1299 277.444 81.8347 278.737 81.4707 280.011Z" fill="#FAFAFA"/>
<path d="M78.4623 178.029L78.4241 178.207C78.3796 178.341 78.3351 178.5 78.2778 178.703L77.68 180.611C77.4129 181.438 77.0949 182.45 76.7641 183.639C76.4334 184.828 76.0073 186.183 75.6384 187.671C75.2695 189.159 74.8116 190.813 74.4173 192.594C74.023 194.374 73.6223 196.276 73.2153 198.286C72.4648 202.318 71.7779 206.776 71.3073 211.483C70.8366 216.189 70.6713 220.699 70.5822 224.794C70.5822 226.849 70.5822 228.795 70.6331 230.62C70.684 232.445 70.7667 234.137 70.8557 235.708C70.9447 237.279 71.0719 238.659 71.1673 239.887C71.2627 241.114 71.3645 242.17 71.4663 243.035C71.568 243.9 71.6253 244.536 71.6698 245.019C71.6698 245.229 71.7079 245.401 71.7143 245.541C71.724 245.6 71.724 245.66 71.7143 245.719C71.6931 245.662 71.6803 245.602 71.6761 245.541C71.6761 245.407 71.6253 245.235 71.5935 245.032C71.5235 244.549 71.4345 243.887 71.32 243.048C71.2055 242.208 71.0656 241.14 70.9575 239.906C70.8493 238.672 70.6776 237.279 70.5886 235.727C70.4995 234.175 70.3723 232.477 70.3278 230.639C70.2833 228.801 70.2451 226.861 70.2324 224.807C70.2769 220.699 70.4805 216.183 70.9384 211.451C71.3963 206.719 72.115 202.267 72.8845 198.229C73.3043 196.219 73.6795 194.298 74.1565 192.505C74.6335 190.711 75.0024 189.077 75.4285 187.582C75.8547 186.087 76.2553 184.739 76.6115 183.556C76.9677 182.373 77.2984 181.368 77.5909 180.548C77.8835 179.727 78.087 179.123 78.2269 178.64C78.2969 178.443 78.3541 178.284 78.405 178.157C78.4194 178.112 78.4386 178.069 78.4623 178.029Z" fill="#CCCCCC"/>
<path d="M72.8156 199.925C73.6765 197.376 75.3963 195.204 77.681 193.782C78.4505 193.305 79.43 192.917 80.225 193.311C81.3125 193.839 81.4016 195.372 81.0772 196.542C80.5147 198.521 79.2597 200.232 77.5411 201.363C76.0162 202.491 74.1075 202.971 72.2305 202.698" fill="#CCCCCC"/>
<path d="M70.9201 214.707C71.7278 211.655 74.1637 207.317 76.6886 205.428C77.0753 205.111 77.5204 204.874 77.9987 204.729C78.2402 204.661 78.4944 204.654 78.7394 204.707C78.9843 204.76 79.2126 204.872 79.4043 205.034C79.9195 205.53 79.8686 206.363 79.7159 207.056C79.1981 209.283 78.0706 211.321 76.4599 212.943C74.8491 214.565 72.8186 215.707 70.5957 216.24" fill="#CCCCCC"/>
<path d="M70.3984 227.719C71.6515 224.804 73.6605 222.277 76.2178 220.399C76.4911 220.15 76.8112 219.957 77.1595 219.833C77.5078 219.708 77.8773 219.654 78.2467 219.674C79.3533 219.877 79.8558 221.226 79.754 222.345C79.5568 224.647 77.7951 226.492 75.9825 227.923C74.03 229.462 70.5956 230.689 70.5956 230.689" fill="#CCCCCC"/>
<path d="M70.6914 237.075C71.9088 234.854 73.6003 232.928 75.6458 231.434C76.0843 231.111 76.5914 230.893 77.1277 230.798C77.3979 230.749 77.6763 230.774 77.933 230.872C78.1897 230.969 78.4148 231.135 78.5842 231.351C79.0802 232.083 78.5842 233.068 78.0754 233.768C76.3323 236.204 73.8567 238.02 71.0094 238.951" fill="#CCCCCC"/>
<path d="M70.4434 233.278C68.3121 230.658 65.9424 228.242 63.3648 226.06C62.9577 225.723 62.4553 225.366 61.9528 225.525C61.7662 225.606 61.6069 225.739 61.4941 225.909C61.3812 226.078 61.3197 226.276 61.3168 226.479C61.3092 226.889 61.4009 227.295 61.584 227.662C62.4299 229.544 63.6892 231.211 65.2682 232.539C66.8472 233.867 68.7053 234.822 70.7042 235.333" fill="#CCCCCC"/>
<path d="M70.6719 221.098L65.1069 214.318C64.6199 213.634 64.0069 213.049 63.3006 212.595C62.9429 212.378 62.5327 212.264 62.1145 212.264C61.6963 212.264 61.2861 212.378 60.9284 212.595C60.6066 212.861 60.3649 213.211 60.2301 213.606C60.0954 214.002 60.0729 214.426 60.1652 214.834C60.3687 215.639 60.7392 216.393 61.2527 217.047C62.3354 218.712 63.7075 220.171 65.304 221.353C66.9386 222.478 68.4268 223.21 70.392 222.917" fill="#CCCCCC"/>
<path d="M71.4412 207.393C70.3512 204.147 68.42 201.247 65.8444 198.991C65.4426 198.583 64.9401 198.289 64.388 198.139C63.2686 197.923 62.1938 198.857 61.844 199.932C61.669 200.548 61.6238 201.193 61.7114 201.827C61.799 202.461 62.0174 203.07 62.3528 203.615C63.0344 204.701 63.9251 205.642 64.9731 206.381C66.8459 207.815 68.9348 208.942 71.1614 209.72" fill="#CCCCCC"/>
<path d="M73.6662 195.175C73.1256 191.244 71.0777 187.969 68.7054 184.789C68.2094 184.115 67.5098 183.409 66.683 183.517C66.4219 183.573 66.1791 183.694 65.9769 183.869C65.7747 184.043 65.6195 184.265 65.5254 184.515C65.3399 185.017 65.264 185.553 65.3028 186.086C65.4056 188.469 66.2077 190.768 67.609 192.698C69.0104 194.628 70.949 196.102 73.1829 196.936" fill="#CCCCCC"/>
<path d="M75.2257 188.935C74.9675 186.92 74.8994 184.884 75.0221 182.855C75.1467 180.814 75.8456 178.85 77.0383 177.189C77.5493 176.474 78.2498 175.917 79.0607 175.579C79.4676 175.416 79.9098 175.361 80.3444 175.419C80.779 175.477 81.1913 175.646 81.5412 175.91C81.8366 176.187 82.0659 176.527 82.2124 176.905C82.3588 177.282 82.4185 177.688 82.387 178.092C82.3152 178.899 82.0999 179.688 81.751 180.419C80.2691 183.987 77.8015 187.937 75.2193 188.935" fill="#CCCCCC"/>
<path d="M50.9878 193.623C51.0028 193.788 51.0028 193.954 50.9878 194.119C50.9878 194.482 50.9878 194.959 50.9878 195.544C50.9878 196.129 50.9878 196.924 51.0259 197.802C51.0641 198.679 51.0259 199.71 51.1277 200.791C51.2295 202.998 51.4393 205.631 51.7637 208.537C52.0881 211.444 52.6223 214.617 53.3028 217.925C53.9833 221.232 54.8292 224.342 55.6687 227.147C56.5083 229.951 57.3859 232.438 58.2127 234.499C58.5943 235.542 58.9887 236.464 59.313 237.278C59.6374 238.092 59.949 238.792 60.1907 239.358C60.4324 239.924 60.6041 240.337 60.7504 240.674C60.8221 240.823 60.8796 240.979 60.9221 241.139C60.8261 241.001 60.7451 240.854 60.6804 240.7L60.0444 239.428C59.7773 238.868 59.4529 238.156 59.1159 237.373C58.7788 236.591 58.3527 235.644 57.9583 234.607C57.1252 232.553 56.2411 230.059 55.3571 227.255C54.4731 224.45 53.6653 221.327 52.9594 218.014C52.2534 214.7 51.8273 211.488 51.5157 208.575C51.204 205.663 51.0132 203.017 50.9496 200.797C50.8924 199.69 50.9051 198.686 50.8924 197.808C50.8797 196.93 50.8924 196.167 50.8924 195.544C50.8924 194.92 50.9305 194.482 50.9433 194.119C50.9385 193.953 50.9535 193.786 50.9878 193.623Z" fill="#7C7C7C"/>
<path d="M51.8594 209.74C51.895 207.822 52.5965 205.976 53.8437 204.518C54.0248 204.248 54.2699 204.026 54.5573 203.873C54.8446 203.72 55.1653 203.64 55.4909 203.641C56.3495 203.768 56.7629 204.792 56.7629 205.657C56.8077 207.126 56.3223 208.561 55.3955 209.702C54.596 210.793 53.4029 211.53 52.0693 211.756" fill="#7C7C7C"/>
<path d="M53.7467 220.228C53.6386 217.977 54.3827 214.504 55.6547 212.672C55.8487 212.37 56.1018 212.111 56.3988 211.909C56.549 211.812 56.7207 211.752 56.899 211.735C57.0774 211.719 57.2571 211.746 57.4228 211.814C57.6284 211.964 57.7939 212.163 57.9048 212.393C58.0157 212.622 58.0685 212.875 58.0588 213.13C58.1845 214.757 57.8548 216.387 57.1067 217.837C56.3586 219.287 55.2216 220.5 53.823 221.341" fill="#7C7C7C"/>
<path d="M56.1895 229.188C56.4163 226.932 57.2419 224.778 58.5808 222.949C58.7104 222.723 58.8832 222.524 59.0895 222.365C59.2957 222.206 59.5313 222.089 59.7829 222.02C60.5779 221.919 61.2075 222.733 61.3792 223.515C61.7417 225.124 60.9404 226.759 60.0118 228.12C59.1239 229.264 58.0913 230.288 56.9399 231.166" fill="#7C7C7C"/>
<path d="M58.4023 235.492C58.7512 233.718 59.4897 232.043 60.5647 230.588C60.7901 230.269 61.0861 230.006 61.4297 229.819C61.6033 229.727 61.7989 229.684 61.9951 229.695C62.1913 229.706 62.3807 229.771 62.5427 229.882C63.0388 230.27 62.9307 231.04 62.7144 231.638C62.0507 233.671 60.7564 235.44 59.0193 236.688" fill="#7C7C7C"/>
<path d="M57.4175 232.948C55.4061 231.625 53.2771 230.49 51.0575 229.558C50.8969 229.46 50.7148 229.404 50.5272 229.394C50.3397 229.384 50.1526 229.421 49.9826 229.501C49.8715 229.595 49.7901 229.72 49.7484 229.86C49.7066 230 49.7063 230.149 49.7473 230.289C49.8329 230.567 49.9808 230.822 50.1798 231.033C51.1611 232.132 52.3773 232.996 53.7381 233.561C55.099 234.126 56.5696 234.377 58.0407 234.296" fill="#7C7C7C"/>
<path d="M54.9568 224.622L49.7034 221.2C49.2246 220.844 48.6831 220.581 48.1071 220.424C47.8178 220.35 47.5137 220.356 47.2278 220.443C46.9419 220.529 46.6851 220.692 46.4853 220.914C46.3231 221.165 46.2337 221.456 46.227 221.755C46.2202 222.053 46.2964 222.348 46.4471 222.606C46.7629 223.109 47.1785 223.542 47.6682 223.878C48.7624 224.782 50.0125 225.478 51.357 225.932C52.7117 226.352 53.901 226.524 55.173 225.932" fill="#7C7C7C"/>
<path d="M52.5318 215.14C51.089 213.164 49.1494 211.604 46.9096 210.618C46.5469 210.43 46.1412 210.34 45.733 210.358C45.3363 210.448 44.9837 210.674 44.7363 210.997C44.4889 211.32 44.3622 211.719 44.3783 212.126C44.3952 212.579 44.5049 213.024 44.7007 213.433C44.8965 213.842 45.1743 214.207 45.5168 214.504C46.2141 215.097 47.0228 215.545 47.8954 215.821C49.4787 216.393 51.1419 216.712 52.8244 216.768" fill="#7C7C7C"/>
<path d="M51.4128 206.325C50.198 203.781 48.0992 201.975 45.8033 200.321C45.5885 200.113 45.3227 199.964 45.0325 199.89C44.7424 199.817 44.4379 199.821 44.1497 199.901C43.9857 199.998 43.8478 200.133 43.748 200.295C43.6482 200.456 43.5896 200.64 43.5773 200.83C43.5591 201.212 43.6219 201.593 43.7617 201.949C44.3476 203.549 45.3905 204.941 46.7609 205.953C48.1313 206.965 49.7688 207.552 51.4701 207.642" fill="#7C7C7C"/>
<path d="M51.1266 201.739C50.5167 200.422 50.0333 199.051 49.6829 197.643C49.3286 196.228 49.3815 194.742 49.8355 193.356C50.0322 192.758 50.3937 192.226 50.8786 191.824C51.1211 191.625 51.4104 191.493 51.7188 191.438C52.0272 191.384 52.3445 191.409 52.6403 191.512C52.8962 191.635 53.1221 191.813 53.3023 192.033C53.4824 192.253 53.6125 192.509 53.6833 192.784C53.8106 193.35 53.8364 193.933 53.7596 194.508C53.518 197.255 52.6848 200.473 51.1393 201.707" fill="#7C7C7C"/>
<path d="M90.5082 193.279C90.5383 193.443 90.5532 193.609 90.5527 193.775C90.5527 194.138 90.5527 194.609 90.6036 195.2C90.6545 195.791 90.6417 196.58 90.6036 197.464C90.5654 198.348 90.6036 199.372 90.5527 200.453C90.4891 202.673 90.2983 205.312 89.9803 208.232C89.6623 211.151 89.1535 214.337 88.4666 217.657C87.7797 220.977 86.9211 224.093 86.0625 226.905C85.2039 229.716 84.2945 232.196 83.4613 234.25C83.067 235.287 82.6536 236.203 82.3101 237.017C81.9667 237.831 81.6741 238.518 81.3752 239.071C81.0763 239.625 80.9109 240.032 80.7392 240.343C80.6707 240.493 80.5921 240.637 80.5039 240.776C80.5426 240.615 80.6003 240.459 80.6756 240.311C80.8155 239.974 81 239.542 81.2353 238.995C81.4706 238.448 81.7823 237.723 82.1066 236.915C82.431 236.108 82.8317 235.179 83.2069 234.136C84.0083 232.075 84.8669 229.582 85.7509 226.784C86.6349 223.985 87.4109 220.869 88.1105 217.562C88.8101 214.255 89.2934 211.075 89.6496 208.174C90.0057 205.274 90.2029 202.641 90.2856 200.428C90.3555 199.321 90.3619 198.323 90.3937 197.439C90.4255 196.555 90.4319 195.804 90.3937 195.181C90.3555 194.558 90.3937 194.119 90.3937 193.756C90.415 193.594 90.4533 193.434 90.5082 193.279Z" fill="#CCCCCC"/>
<path d="M89.6369 209.416C89.5995 207.497 88.8957 205.651 87.6462 204.194C87.4643 203.924 87.219 203.703 86.9318 203.55C86.6446 203.397 86.3244 203.317 85.999 203.316C85.1404 203.444 84.727 204.468 84.727 205.333C84.6863 206.802 85.1737 208.237 86.1007 209.377C86.896 210.473 88.0911 211.211 89.427 211.432" fill="#CCCCCC"/>
<path d="M87.7666 219.871C87.8683 217.619 87.1306 214.147 85.8586 212.315C85.6646 212.013 85.4115 211.753 85.1145 211.552C84.9654 211.454 84.7948 211.394 84.6175 211.378C84.4402 211.361 84.2614 211.388 84.0969 211.456C83.8904 211.606 83.7243 211.805 83.6133 212.035C83.5024 212.264 83.45 212.518 83.4609 212.773C83.3323 214.399 83.66 216.03 84.4072 217.48C85.1544 218.931 86.2913 220.144 87.6903 220.984" fill="#CCCCCC"/>
<path d="M85.2997 228.844C85.0713 226.59 84.2483 224.437 82.9147 222.605C82.7817 222.377 82.6047 222.177 82.394 222.018C82.1833 221.858 81.943 221.743 81.6872 221.677C80.8922 221.575 80.2625 222.389 80.0845 223.171C79.7283 224.78 80.5297 226.415 81.4519 227.776C82.3398 228.92 83.3724 229.944 84.5237 230.822" fill="#CCCCCC"/>
<path d="M83.0868 235.155C82.7387 233.379 82.0025 231.702 80.9307 230.245C80.7036 229.924 80.4054 229.661 80.0594 229.475C79.8858 229.383 79.6903 229.34 79.494 229.351C79.2978 229.363 79.1084 229.427 78.9464 229.539C78.4567 229.927 78.5648 230.696 78.7747 231.294C79.4384 233.327 80.7327 235.096 82.4699 236.344" fill="#CCCCCC"/>
<path d="M84.0725 232.617C86.0854 231.297 88.2142 230.162 90.4325 229.227C90.5936 229.131 90.7756 229.076 90.9629 229.066C91.1501 229.056 91.3369 229.092 91.5073 229.17C91.6209 229.263 91.7044 229.387 91.7474 229.528C91.7905 229.668 91.791 229.818 91.749 229.959C91.6595 230.236 91.5097 230.49 91.3102 230.703C90.3295 231.803 89.1133 232.667 87.7524 233.232C86.3914 233.797 84.9205 234.048 83.4492 233.965" fill="#CCCCCC"/>
<path d="M86.5405 224.278L91.7875 220.857C92.2671 220.502 92.8084 220.239 93.3838 220.081C93.6731 220.006 93.9772 220.013 94.2631 220.099C94.549 220.185 94.8058 220.348 95.0056 220.57C95.1692 220.821 95.2594 221.112 95.2662 221.411C95.2729 221.71 95.1959 222.005 95.0438 222.262C94.7314 222.768 94.3152 223.201 93.8227 223.534C92.7286 224.436 91.4813 225.134 90.1402 225.595C88.7855 226.008 87.5962 226.186 86.3242 225.595" fill="#CCCCCC"/>
<path d="M88.963 214.783C90.4063 212.807 92.3457 211.247 94.5852 210.261C94.9474 210.072 95.3535 209.982 95.7618 210C96.1573 210.092 96.5085 210.319 96.7546 210.642C97.0008 210.964 97.1265 211.363 97.1101 211.769C97.099 212.226 96.9919 212.675 96.7958 213.088C96.5996 213.501 96.3189 213.869 95.9717 214.166C95.275 214.758 94.469 215.207 93.5994 215.489C92.0134 216.058 90.3482 216.376 88.6641 216.43" fill="#CCCCCC"/>
<path d="M90.0762 205.982C91.291 203.438 93.3898 201.638 95.6921 199.978C96.1755 199.628 96.8051 199.298 97.3393 199.558C97.5131 199.653 97.6599 199.79 97.7657 199.957C97.8714 200.124 97.9327 200.315 97.9435 200.512C97.9564 200.895 97.8915 201.275 97.7527 201.632C97.1694 203.232 96.1281 204.625 94.7584 205.637C93.3888 206.649 91.7516 207.236 90.0508 207.324" fill="#CCCCCC"/>
<path d="M90.3619 201.402C90.9693 200.084 91.4547 198.712 91.812 197.306C92.1613 195.888 92.1062 194.401 91.653 193.013C91.4599 192.415 91.1029 191.884 90.6227 191.48C90.3817 191.281 90.0932 191.148 89.7854 191.095C89.4776 191.041 89.1612 191.069 88.8673 191.175C88.6084 191.295 88.3797 191.471 88.1981 191.692C88.0165 191.912 87.8866 192.17 87.8179 192.447C87.6945 193.013 87.6687 193.596 87.7416 194.17C87.9833 196.918 88.8164 200.136 90.3619 201.376" fill="#CCCCCC"/>
<path d="M44.3027 240.795V247.416C44.3027 247.758 44.3702 248.097 44.5013 248.413C44.6325 248.729 44.8246 249.016 45.0669 249.257C45.3091 249.499 45.5966 249.69 45.9129 249.821C46.2293 249.951 46.5682 250.018 46.9103 250.017H92.1745C92.8643 250.017 93.526 249.743 94.0138 249.255C94.5016 248.767 94.7757 248.106 94.7757 247.416V240.795H44.3027Z" fill="#CCCCCC"/>
<path d="M48.2266 250.018L48.6018 252.123L90.3679 255.099L91.43 250.018H48.2266Z" fill="#7C7C7C"/>
<path d="M55.7383 89.2631L46.1983 85.3453C46.1983 85.3453 42.9038 93.3526 34.5277 90.0708C32.9007 89.4712 31.5015 88.3785 30.5255 86.9452C29.5495 85.512 29.0454 83.8098 29.0835 82.0763C29.0926 80.6197 29.4466 79.186 30.1165 77.8926C30.7865 76.5992 31.7532 75.4829 32.9377 74.6351C35.647 72.6317 40.2962 71.3978 46.2555 75.1757L54.9878 53.946L45.5559 50.0664L40.3789 62.6592C40.3789 62.6592 25.7509 60.6431 19.7661 75.2139C14.0421 89.155 25.6936 97.7346 32.1999 100.412C36.3021 102.091 49.003 106.162 55.7383 89.2631Z" fill="#F5F5F5"/>
<path d="M50.9451 36.6606L47.2715 45.5957L56.8419 49.5306L60.5155 40.5955L50.9451 36.6606Z" fill="#F5F5F5"/>
<path d="M52.5073 87.9389L42.9673 84.0211C42.9673 84.0211 39.6728 92.022 31.2967 88.7466C29.6703 88.1461 28.2716 87.0532 27.2958 85.6202C26.3199 84.1872 25.8154 82.4854 25.8525 80.7521C25.8619 79.2948 26.2166 77.8606 26.8877 76.5671C27.5588 75.2736 28.5271 74.1576 29.7131 73.3109C32.4224 71.3075 36.9635 70.3407 42.9228 74.1186L51.7632 52.6218L42.3377 48.7422L37.1606 61.335C37.1606 61.335 22.5326 59.3189 16.5351 73.8705C10.8111 87.8117 21.9793 96.2069 27.3471 98.3883C31.4239 100.074 45.7911 104.812 52.5073 87.9389Z" fill="#7C7C7C"/>
<path d="M47.7186 35.3149L44.0449 44.25L53.6153 48.1849L57.289 39.2498L47.7186 35.3149Z" fill="#7C7C7C"/>
<path d="M281.345 252.429L275.437 252.918C275.437 252.918 275.85 257.879 270.699 258.401C269.707 258.518 268.704 258.323 267.828 257.845C266.951 257.366 266.246 256.627 265.808 255.73C265.429 254.983 265.231 254.157 265.231 253.319C265.231 252.481 265.429 251.656 265.808 250.909C266.673 249.172 268.734 247.322 272.772 247.691L271.685 234.525L265.833 235.015L266.469 242.819C266.469 242.819 258.449 245.624 259.2 254.655C259.919 263.298 268.142 264.64 272.174 264.303C274.75 264.112 282.325 262.84 281.345 252.429Z" fill="#F5F5F5"/>
<path d="M271.295 227.826L265.342 228.303L265.786 233.861L271.739 233.385L271.295 227.826Z" fill="#F5F5F5"/>
<path d="M279.344 252.581L273.429 253.077C273.429 253.077 273.843 258.038 268.691 258.553C267.701 258.673 266.698 258.48 265.822 258.002C264.946 257.525 264.242 256.785 263.807 255.888C263.427 255.141 263.229 254.315 263.229 253.477C263.229 252.64 263.427 251.814 263.807 251.067C264.671 249.331 266.745 247.645 270.803 248.014L269.696 234.658L263.851 235.148L264.487 242.952C264.487 242.952 256.467 245.75 257.218 254.788C257.936 263.431 265.854 264.798 269.168 264.518C271.725 264.334 280.323 263.005 279.344 252.581Z" fill="#7C7C7C"/>
<path d="M269.032 226.388L263.1 226.881L263.56 232.42L269.492 231.927L269.032 226.388Z" fill="#7C7C7C"/>
<path d="M247.009 38.019L258.718 33.3953C258.718 33.3953 254.832 23.5627 264.983 19.3524C266.924 18.5053 269.082 18.2853 271.155 18.7231C273.228 19.1609 275.112 20.2347 276.545 21.7946C277.768 23.0823 278.669 24.6406 279.175 26.3427C279.682 28.0448 279.779 29.8424 279.458 31.589C278.765 35.6467 275.718 40.6711 267.279 42.401L277.576 68.477L289.157 63.9042L283.02 48.4303C283.02 48.4303 297.648 37.8218 290.563 19.9248C283.796 2.80367 266.267 5.12507 258.273 8.28599C253.249 10.2703 238.627 17.4444 247.009 38.019Z" fill="#F5F5F5"/>
<path d="M291.443 69.2859L279.689 73.9277L284.023 84.9008L295.777 80.259L291.443 69.2859Z" fill="#F5F5F5"/>
<path d="M242.316 39.8634L254.031 35.2397C254.031 35.2397 250.145 25.4071 260.296 21.1968C262.236 20.3474 264.392 20.1244 266.465 20.5587C268.537 20.9931 270.423 22.0632 271.858 23.62C273.083 24.9105 273.985 26.4722 274.491 28.1776C274.997 29.883 275.093 31.6839 274.771 33.4335C274.116 37.4911 270.936 42.1848 262.477 43.9147L272.908 70.3151L284.483 65.7423L278.377 50.2747C278.377 50.2747 292.961 39.6663 285.888 21.7947C279.128 4.62265 262.204 6.73417 255.627 9.32905C250.584 11.3134 233.959 19.2888 242.316 39.8634Z" fill="#7C7C7C"/>
<path d="M286.773 71.1257L275.02 75.7676L279.353 86.7407L291.107 82.0988L286.773 71.1257Z" fill="#7C7C7C"/>
<path d="M152.039 24.3091C153.117 12.1648 144.126 1.44472 131.957 0.36511C119.788 -0.714503 109.05 8.2552 107.972 20.3995C106.895 32.5438 115.886 43.2639 128.055 44.3435C140.224 45.4231 150.962 36.4534 152.039 24.3091Z" fill="white"/>
<path d="M144.213 39.2909L144.487 39.0619L145.262 38.3305L145.835 37.8026C146.038 37.6055 146.242 37.3638 146.471 37.1094L147.202 36.2953C147.469 35.9776 147.72 35.6464 147.953 35.3032C149.229 33.5821 150.233 31.6752 150.929 29.6491C151.881 26.9703 152.302 24.1318 152.169 21.2921C152.169 20.8978 152.125 20.4971 152.106 20.0964C152.087 19.6957 151.985 19.295 151.928 18.8816C151.87 18.4682 151.826 18.0612 151.718 17.6542C151.61 17.2471 151.508 16.8337 151.406 16.3822L151.044 15.2056V15.1356C150.897 14.7222 150.745 14.3024 150.598 13.8636C150.452 13.4248 150.217 13.0495 150.026 12.6361C149.841 12.2136 149.629 11.8035 149.39 11.4086C148.926 10.5865 148.407 9.79608 147.838 9.04272C147.546 8.66748 147.272 8.2668 146.954 7.89792L145.587 6.41604L145.441 6.27612L144.881 5.78004C144.499 5.45568 144.13 5.10588 143.736 4.78788C142.925 4.16198 142.076 3.58841 141.192 3.07068C140.281 2.53904 139.336 2.06945 138.362 1.66512C137.859 1.46796 137.344 1.31532 136.835 1.13088C136.581 1.05456 136.327 0.946442 136.066 0.882842L135.226 0.806521C134.369 0.587986 133.498 0.430709 132.619 0.335882L131.29 0.170521L129.859 0.113281H129.439L128.587 0.157801L127.734 0.208681L126.888 0.329521L126.036 0.463081L125.61 0.526681L125.19 0.628441L122.068 1.57608L121.851 1.6524C119.643 2.54699 117.583 3.7691 115.739 5.2776C113.929 6.82886 112.364 8.64504 111.097 10.6645L110.995 10.8426C110.588 11.6503 109.92 12.9668 109.507 13.7746L109.335 14.1689L109.195 14.5759L108.915 15.4345L108.642 16.2486L108.451 17.0818L108.254 17.9086L108.158 18.322L107.967 19.7402L107.847 21.0695C107.783 21.9503 107.783 22.8345 107.847 23.7152L107.891 24.5293C107.891 24.8028 107.967 25.0699 107.999 25.337C108.088 25.8713 108.152 26.4055 108.26 26.927C108.483 27.9598 108.779 28.9756 109.144 29.9671C109.508 30.9363 109.933 31.8816 110.416 32.7973C110.658 33.2425 110.938 33.6623 111.192 34.0693L111.58 34.7053L111.694 34.8707L112.909 36.4734C113.221 36.855 113.545 37.1921 113.889 37.5482C114.529 38.2308 115.215 38.8684 115.943 39.4562C116.286 39.773 116.647 40.0703 117.024 40.3466C117.399 40.601 117.755 40.8809 118.137 41.1162L119.295 41.784L120.439 42.3691L121.61 42.8906C121.994 43.0533 122.387 43.1955 122.786 43.3168C123.174 43.444 123.562 43.5839 123.944 43.6984L125.114 43.9718C127.887 44.5976 130.756 44.6796 133.56 44.2135C135.677 43.8808 137.73 43.2244 139.647 42.2674C140.026 42.0993 140.395 41.9103 140.753 41.7013L141.682 41.1289C141.968 40.9508 142.241 40.7918 142.477 40.6328L143.113 40.1558L143.94 39.5198C144.13 39.3736 144.219 39.2909 144.219 39.2909L143.927 39.5008L143.081 40.1368C142.89 40.2703 142.687 40.4293 142.445 40.5947C142.203 40.76 141.936 40.9063 141.65 41.0844L140.715 41.6441C140.354 41.8475 139.982 42.0322 139.602 42.1974C137.693 43.1171 135.656 43.7432 133.56 44.0545C130.774 44.5001 127.928 44.4051 125.178 43.7747L124.02 43.5203C123.632 43.4058 123.257 43.2659 122.869 43.1387C122.481 43.0115 122.08 42.897 121.705 42.7126L120.547 42.191L119.454 41.6314H119.403L118.264 40.9954C117.883 40.76 117.533 40.4802 117.164 40.2258C116.785 39.9727 116.422 39.6966 116.076 39.399C115.356 38.8111 114.678 38.1736 114.048 37.491C113.73 37.1412 113.412 36.8041 113.081 36.4289L111.879 34.8325C111.839 34.7821 111.803 34.7289 111.771 34.6735L111.383 34.0375C111.135 33.6114 110.855 33.198 110.62 32.7655C110.152 31.8603 109.744 30.9255 109.398 29.9671C109.03 28.9613 108.735 27.9305 108.514 26.8825C108.406 26.3674 108.349 25.8395 108.26 25.3116C108.228 25.0445 108.165 24.7837 108.152 24.5166L108.12 23.7025C108.05 22.6118 108.05 21.5178 108.12 20.4271C108.196 19.8802 108.273 19.3332 108.343 18.7799L108.4 18.3665L108.495 17.9594L108.686 17.1454L108.883 16.3186L109.15 15.5172L109.424 14.7095L109.564 14.3088L109.735 13.9145L111.23 10.9825L111.325 10.8235C113.8 6.77679 117.53 3.64999 121.947 1.91952L122.15 1.8432L125.248 0.908281L125.661 0.800161L126.081 0.736561L126.927 0.609362L127.76 0.482161L128.606 0.437641L129.445 0.393122H129.865H130.278L131.938 0.456722C133.024 0.568748 134.102 0.753603 135.163 1.01004L135.951 1.19448C136.212 1.25172 136.46 1.35984 136.715 1.43616C137.217 1.61424 137.732 1.76688 138.222 1.95768C139.187 2.35777 140.124 2.82312 141.027 3.35052C141.912 3.85652 142.762 4.42173 143.571 5.04228C143.965 5.35392 144.328 5.67828 144.703 6.02172L145.262 6.51144L145.402 6.645L146.757 8.1078C147.075 8.47032 147.349 8.871 147.641 9.23988C148.205 9.99854 148.719 10.7931 149.18 11.6185C149.414 12.0118 149.626 12.4173 149.816 12.8333C150.001 13.2403 150.217 13.6346 150.382 14.048L150.827 15.2882C150.904 15.4918 150.98 15.6953 151.05 15.9242V15.9815C151.203 16.5857 151.355 17.1835 151.508 17.7686C151.622 18.1757 151.648 18.5891 151.724 18.9898C151.801 19.3904 151.851 19.7975 151.902 20.1918C151.953 20.5861 151.947 20.9868 151.966 21.3748C152.11 24.1923 151.706 27.011 150.777 29.6746C150.095 31.6922 149.111 33.5944 147.857 35.3159C147.59 35.6657 147.387 36.0282 147.12 36.3144L146.407 37.0585C146.185 37.3129 145.987 37.5546 145.771 37.7581L145.212 38.2924L144.448 39.011C144.296 39.2018 144.213 39.2909 144.213 39.2909Z" fill="#7C7C7C"/>
<path d="M148.862 51.4781C148.493 51.9665 148.007 52.3532 147.448 52.6019C146.889 52.8506 146.276 52.953 145.667 52.8996C145.058 52.8462 144.472 52.6386 143.965 52.2965C143.458 51.9544 143.046 51.4889 142.769 50.9438C142.463 50.3467 142.332 49.6756 142.391 49.0074C142.449 48.3391 142.695 47.701 143.099 47.166C143.681 46.4301 144.527 45.9504 145.458 45.8291C146.388 45.7077 147.329 45.9544 148.08 46.5165C148.831 47.0786 149.333 47.9117 149.479 48.8385C149.625 49.7652 149.403 50.7123 148.862 51.4781Z" fill="white"/>
<path d="M148.29 52.0746C148.29 52.0746 148.359 52.0365 148.474 51.9411C148.645 51.7982 148.798 51.636 148.932 51.4577C149.353 50.8954 149.602 50.2238 149.651 49.5232C149.699 48.8227 149.544 48.1231 149.205 47.5082C148.882 46.9285 148.41 46.4455 147.838 46.109C147.206 45.733 146.473 45.5599 145.739 45.6129C144.948 45.6564 144.192 45.955 143.584 46.464C142.976 46.973 142.55 47.6651 142.368 48.4367C142.193 49.1514 142.235 49.9022 142.489 50.5928C142.721 51.2143 143.114 51.7631 143.628 52.1828C144.076 52.545 144.603 52.7956 145.167 52.9142C145.978 53.0909 146.825 52.9808 147.565 52.6025C147.765 52.505 147.951 52.3809 148.118 52.2336C148.239 52.1382 148.296 52.081 148.29 52.0746C148.283 52.0683 148.029 52.2718 147.52 52.5071C146.795 52.8368 145.98 52.9152 145.205 52.7297C144.757 52.623 144.334 52.4287 143.961 52.1581C143.588 51.8875 143.272 51.5459 143.032 51.1529C142.791 50.7599 142.631 50.3233 142.559 49.8681C142.488 49.4128 142.508 48.948 142.616 48.5003C142.791 47.7839 143.19 47.1421 143.755 46.6684C144.321 46.1947 145.022 45.9141 145.758 45.8673C146.442 45.8194 147.125 45.979 147.717 46.3252C148.246 46.6296 148.685 47.0685 148.989 47.5972C149.32 48.1788 149.48 48.8423 149.45 49.5109C149.419 50.1795 149.2 50.8259 148.817 51.375C148.525 51.8584 148.264 52.0556 148.29 52.0746Z" fill="#7C7C7C"/>
<path d="M123.231 18.7299H126.564C126.562 18.349 126.637 17.9716 126.783 17.6202C126.93 17.2687 127.146 16.9503 127.419 16.6839C127.691 16.4176 128.014 16.2086 128.369 16.0696C128.723 15.9305 129.102 15.8641 129.483 15.8743C130.045 15.8539 130.6 16.0097 131.07 16.3198C131.54 16.6299 131.901 17.0789 132.103 17.6042C132.279 18.042 132.348 18.515 132.306 18.9847C132.264 19.4544 132.112 19.9075 131.862 20.3072C131.296 21.2421 130.055 22.0944 127.804 21.7001V29.2367H131.105V24.7847C132.462 24.3875 133.65 23.5556 134.488 22.4168C135.326 21.2779 135.766 19.8954 135.741 18.4819C135.741 13.5911 131.359 12.459 129.483 12.459C128.052 12.4908 123.167 12.8342 123.231 18.7299Z" fill="#406FCC"/>
<path d="M131.149 30.7891H127.797V33.9245H131.149V30.7891Z" fill="#406FCC"/>
<path d="M84.8854 113.15H88.2307C88.2289 112.769 88.3036 112.391 88.4505 112.04C88.5973 111.689 88.8133 111.37 89.0856 111.104C89.3579 110.837 89.681 110.629 90.0356 110.489C90.3902 110.35 90.7692 110.284 91.15 110.294C91.7107 110.275 92.2635 110.43 92.7319 110.739C93.2003 111.048 93.561 111.495 93.7639 112.018C93.9423 112.456 94.0139 112.93 93.973 113.401C93.9321 113.872 93.7798 114.326 93.5286 114.727C92.9626 115.662 91.716 116.514 89.4646 116.114V123.65H92.7718V119.236C94.1286 118.839 95.3173 118.007 96.155 116.868C96.9928 115.73 97.4331 114.347 97.4082 112.934C97.4082 108.043 93.0262 106.904 91.15 106.904C89.7126 106.904 84.8218 107.254 84.8854 113.15Z" fill="#7C7C7C"/>
<path d="M92.8107 125.209H89.459V128.344H92.8107V125.209Z" fill="#7C7C7C"/>
<path d="M234.867 137.606L231.121 135.227C231.121 135.227 229.117 138.407 225.81 136.353C225.162 135.975 224.648 135.404 224.341 134.72C224.034 134.035 223.95 133.272 224.099 132.537C224.212 131.919 224.47 131.337 224.851 130.838C225.233 130.34 225.727 129.939 226.294 129.668C227.597 129.032 229.601 128.956 231.846 131.004L237.214 122.545L233.506 120.186L230.358 125.146C230.358 125.146 224.303 123.187 220.659 128.918C217.173 134.407 221.295 138.801 223.393 140.143C225.002 141.18 230.739 144.271 234.867 137.606Z" fill="#7C7C7C"/>
<path d="M236.808 114.923L234.574 118.439L238.338 120.83L240.571 117.313L236.808 114.923Z" fill="#7C7C7C"/>
<path d="M86.3114 20.1289L83.2014 21.3564C83.3448 21.7094 83.4154 22.0876 83.4091 22.4686C83.4028 22.8495 83.3197 23.2252 83.1647 23.5732C83.0097 23.9212 82.786 24.2344 82.5071 24.4939C82.2281 24.7534 81.8997 24.9539 81.5414 25.0834C81.027 25.311 80.4543 25.3721 79.9035 25.258C79.3526 25.144 78.8513 24.8605 78.4695 24.4474C78.1443 24.1058 77.905 23.6918 77.7712 23.2395C77.6374 22.7873 77.613 22.3097 77.7 21.8461C77.8844 20.7649 78.7239 19.5184 80.969 19.0605L78.196 12.0645L75.1242 13.2792L76.746 17.3433C75.6301 18.2119 74.8303 19.4229 74.4695 20.7902C74.1087 22.1576 74.2069 23.6055 74.7489 24.9117C76.5424 29.4591 81.039 28.9057 82.7816 28.2189C84.1172 27.7101 88.5374 25.6113 86.3114 20.1289Z" fill="#7C7C7C"/>
<path d="M76.5429 7.48057L73.4258 8.7207L74.5859 11.6367L77.703 10.3966L76.5429 7.48057Z" fill="#7C7C7C"/>
<path d="M254.414 169.463L249.523 167.275L278.646 130.604L283.397 131.92C284.107 132.116 284.741 132.521 285.216 133.084L289.948 138.655C290.274 139.04 290.434 139.539 290.394 140.042C290.353 140.545 290.115 141.011 289.731 141.339L257.041 169.088C256.684 169.393 256.247 169.59 255.782 169.656C255.317 169.723 254.843 169.656 254.414 169.463Z" fill="#EB1C19"/>
<path d="M287.442 166.881L282.15 171.333C281.861 171.58 281.511 171.745 281.137 171.812C280.762 171.879 280.377 171.846 280.02 171.714L276.038 170.296C275.542 170.111 275.131 169.752 274.881 169.285L253.219 128.447L258.103 129.866C258.733 130.049 259.295 130.414 259.719 130.915L287.671 163.847C288.042 164.28 288.226 164.843 288.183 165.411C288.14 165.98 287.873 166.508 287.442 166.881Z" fill="#EB1C19"/>
<g opacity="0.3">
<path d="M254.414 169.463L249.523 167.275L278.646 130.604L283.397 131.92C284.107 132.116 284.741 132.521 285.216 133.084L289.948 138.655C290.274 139.04 290.434 139.539 290.394 140.042C290.353 140.545 290.115 141.011 289.731 141.339L257.041 169.088C256.684 169.393 256.247 169.59 255.782 169.656C255.317 169.723 254.843 169.656 254.414 169.463Z" fill="black"/>
<path d="M287.442 166.881L282.15 171.333C281.861 171.58 281.511 171.745 281.137 171.812C280.762 171.879 280.377 171.846 280.02 171.714L276.038 170.296C275.542 170.111 275.131 169.752 274.881 169.285L253.219 128.447L258.103 129.866C258.733 130.049 259.295 130.414 259.719 130.915L287.671 163.847C288.042 164.28 288.226 164.843 288.183 165.411C288.14 165.98 287.873 166.508 287.442 166.881Z" fill="black"/>
</g>
<path d="M284.278 136.833L279.472 131.169C278.951 130.556 278.032 130.481 277.419 131.001L244.299 159.108C243.686 159.629 243.611 160.548 244.131 161.161L248.938 166.825C249.458 167.438 250.377 167.514 250.991 166.993L284.11 138.886C284.724 138.365 284.799 137.446 284.278 136.833Z" fill="#EB1C19"/>
<path d="M246.407 133.759L252.226 128.82C252.484 128.602 252.817 128.495 253.153 128.523C253.489 128.55 253.801 128.71 254.019 128.967L282.266 162.252C282.516 162.546 282.639 162.928 282.608 163.313C282.576 163.698 282.393 164.055 282.098 164.305L276.42 169.124C276.126 169.373 275.744 169.496 275.359 169.465C274.974 169.433 274.617 169.25 274.367 168.955L246.26 135.836C246.01 135.541 245.887 135.16 245.919 134.775C245.95 134.39 246.133 134.033 246.428 133.783L246.407 133.759Z" fill="#EB1C19"/>
<path d="M255.687 151.076C254.157 152.603 252.55 154.051 250.873 155.414C249.267 156.862 247.587 158.227 245.842 159.503C247.372 157.975 248.979 156.525 250.656 155.159C252.263 153.714 253.942 152.351 255.687 151.076Z" fill="white"/>
<path d="M277.622 132.322C277.685 132.392 275.256 134.542 272.209 137.124C269.163 139.706 266.644 141.735 266.587 141.665C266.53 141.595 268.946 139.452 271.999 136.869C275.052 134.287 277.564 132.252 277.622 132.322Z" fill="white"/>
<path d="M256.775 145.829C256.705 145.886 254.828 143.603 252.583 140.741C250.338 137.879 248.577 135.501 248.647 135.443C250.132 137.067 251.533 138.765 252.844 140.531C254.245 142.228 255.557 143.996 256.775 145.829Z" fill="white"/>
<path d="M273.538 164.909C272.013 163.504 270.565 162.018 269.201 160.457C267.753 158.97 266.388 157.406 265.111 155.77C266.632 157.179 268.079 158.665 269.449 160.222C270.894 161.711 272.259 163.275 273.538 164.909Z" fill="white"/>
<path d="M23.4937 162.537L22.4824 158.771L49.7477 164.203L73.8331 130.336L76.7714 135.806C76.9968 136.221 77.1149 136.687 77.1149 137.16C77.1149 137.633 76.9968 138.099 76.7714 138.515L55.8597 176.796C55.4875 177.476 54.9829 178.075 54.3758 178.557C53.7687 179.039 53.0713 179.395 52.3246 179.603C51.5779 179.812 50.797 179.869 50.0278 179.771C49.2587 179.674 48.5169 179.423 47.8461 179.034L26.7436 166.804C25.9478 166.342 25.2511 165.727 24.6934 164.994C24.1357 164.262 23.728 163.427 23.4937 162.537Z" fill="#31C131"/>
<g opacity="0.3">
<path d="M23.4937 162.535L22.4824 158.77L49.7477 164.201L73.8331 130.334L76.7714 135.804C76.9968 136.22 77.1149 136.685 77.1149 137.158C77.1149 137.631 76.9968 138.097 76.7714 138.513L55.8597 176.794C55.4875 177.474 54.9829 178.073 54.3758 178.555C53.7687 179.037 53.0713 179.393 52.3246 179.601C51.5779 179.81 50.797 179.867 50.0278 179.769C49.2587 179.672 48.5169 179.421 47.8461 179.033L26.7436 166.802C25.9478 166.34 25.2511 165.725 24.6934 164.992C24.1357 164.26 23.728 163.425 23.4937 162.535Z" fill="black"/>
</g>
<path d="M22.5587 156.978L26.4891 150.02C26.7594 149.54 27.2032 149.182 27.7296 149.018C28.2559 148.855 28.8248 148.9 29.3193 149.143L45.0921 156.87C45.5967 157.116 46.1767 157.156 46.7104 156.983C47.244 156.81 47.6898 156.437 47.9541 155.942L63.5997 126.584C63.7384 126.323 63.929 126.094 64.1597 125.91C64.3903 125.726 64.6563 125.591 64.9411 125.513C65.2259 125.436 65.5235 125.418 65.8157 125.459C66.1078 125.501 66.3883 125.603 66.6398 125.757L72.9998 129.668C73.4717 129.958 73.8146 130.418 73.9578 130.952C74.1009 131.487 74.0335 132.057 73.7694 132.543L53.3156 169.946C52.6547 171.156 51.5439 172.057 50.2237 172.453C48.9035 172.849 47.4803 172.71 46.2624 172.064L23.4236 159.98C23.1651 159.845 22.9367 159.658 22.7522 159.432C22.5678 159.206 22.431 158.944 22.3502 158.664C22.2693 158.383 22.2461 158.089 22.282 157.8C22.3178 157.51 22.4119 157.231 22.5587 156.978Z" fill="#31C131"/>
<path d="M44.018 158.651C43.7262 158.565 43.4431 158.452 43.1721 158.314L40.927 157.296C39.019 156.419 36.4368 155.191 33.5748 153.817L31.4824 152.812L30.4902 152.335C30.1977 152.174 29.8752 152.075 29.5426 152.043C29.2369 152.016 28.929 152.052 28.6372 152.147C28.3454 152.242 28.0758 152.395 27.8445 152.596C27.4606 152.993 27.1486 153.454 26.9223 153.957L25.6948 156.101C25.5553 156.369 25.3914 156.625 25.2051 156.864C25.3036 156.577 25.4292 156.3 25.5803 156.037L26.7124 153.843L27.094 153.118C27.2386 152.843 27.4302 152.595 27.66 152.386C27.9192 152.158 28.2216 151.984 28.5494 151.874C28.8772 151.765 29.2236 151.723 29.568 151.75C29.9397 151.781 30.3011 151.887 30.6302 152.062L31.6223 152.533L33.7084 153.518C36.5704 154.892 39.1589 156.158 41.0224 157.086L43.2484 158.199C43.5166 158.329 43.774 158.48 44.018 158.651Z" fill="white"/>
<path d="M49.7984 157.385C49.7157 157.34 53.0293 150.79 57.2014 142.757C61.3736 134.724 64.8334 128.237 64.897 128.281C64.9606 128.326 61.6661 134.87 57.494 142.909C53.3218 150.949 49.8747 157.423 49.7984 157.385Z" fill="white"/>
<path d="M80.8342 205.116C80.8342 205.116 75.4028 200.028 73.3104 198.66C71.2179 197.293 66.537 195.442 64.788 195.271C63.039 195.099 54.8536 197.471 54.8536 197.471C54.8536 197.471 42.7696 196.403 40.7408 197.815C38.712 199.227 38.8773 200.689 39.7296 201.764C40.5818 202.839 43.8445 202.496 47.457 202.553C51.0694 202.61 52.0298 202.947 52.0298 202.947L46.7828 208.538L60.4186 212.322L68.6866 212.01L71.6758 215.775L80.8342 205.116Z" fill="#FFBF9D"/>
<path d="M39.4316 192.491L39.7624 204.524L40.3411 206.018L46.2814 213.262L60.7694 212.302L49.226 207.805L45.1238 204.689L43.5338 199.544C43.5338 199.544 44.0172 191.607 39.4316 192.491Z" fill="#FFBF9D"/>
<path d="M40.4363 206.299H36.8875C36.8875 206.299 32.2828 198.724 28.0725 201.3L29.0392 202.794C29.0392 202.794 27.1312 201.936 25.9355 203.532L37.5489 213.708H38.0831L50.4534 212.913L40.4363 206.299Z" fill="#FFBF9D"/>
<path d="M42.5417 208.601C42.2098 208.632 41.8765 208.645 41.5432 208.639C40.7035 208.647 39.8728 208.813 39.0946 209.128L38.9801 209.186L38.9038 209.078C38.5412 208.569 38.1024 208.028 37.6318 207.462C36.6968 206.298 35.8446 205.249 35.1323 204.371C34.7678 203.96 34.438 203.52 34.1465 203.055C34.581 203.4 34.9756 203.792 35.3231 204.225C36.0036 204.982 36.9258 206.044 37.9052 207.259C38.3632 207.831 38.7956 208.372 39.1772 208.912L38.9801 208.861C39.7997 208.535 40.6823 208.398 41.5622 208.461C41.8947 208.443 42.2275 208.49 42.5417 208.601Z" fill="#FF9A6C"/>
<path d="M67.6379 201.598C66.2365 202.074 64.8718 202.652 63.5548 203.328C62.2992 204.112 61.1044 204.99 59.9805 205.954C60.2135 205.581 60.5031 205.246 60.8391 204.962C61.6035 204.222 62.4583 203.581 63.3831 203.054C64.3102 202.527 65.2994 202.116 66.3278 201.833C66.7487 201.683 67.1913 201.604 67.6379 201.598Z" fill="#FF9A6C"/>
<path d="M56.0627 198.482C55.5618 199.2 55.0068 199.878 54.4027 200.511C53.8835 201.219 53.3093 201.885 52.6855 202.502C53.0429 201.69 53.5377 200.945 54.1483 200.301C54.6775 199.59 55.325 198.975 56.0627 198.482Z" fill="#FF9A6C"/>
<path d="M43.9657 210.281C43.8664 210.198 43.7749 210.107 43.6922 210.007L42.9418 209.174L41.7779 207.839L41.0528 207.006C40.7666 206.699 40.503 206.371 40.2642 206.026C39.7273 205.207 39.438 204.251 39.431 203.272C39.431 202.248 39.3865 201.154 39.3674 200.003C39.3293 197.694 39.2848 195.157 39.2402 192.492V192.346H39.3738L39.7618 192.295C40.1891 192.244 40.6224 192.293 41.0282 192.436C41.434 192.579 41.8014 192.814 42.1022 193.122C42.641 193.723 43.0329 194.442 43.247 195.22C43.6201 196.634 43.766 198.098 43.6795 199.558V199.507C44.271 201.453 44.7925 203.196 45.2377 204.659L45.1932 204.601L48.176 206.936L48.971 207.572C49.0664 207.64 49.1538 207.719 49.2318 207.807C49.2318 207.807 49.1237 207.756 48.9329 207.622L48.1061 207.031L45.0596 204.78V204.741C44.6017 203.285 44.0548 201.561 43.4378 199.609V199.558C43.5087 198.133 43.3564 196.706 42.9863 195.329C42.7982 194.597 42.4409 193.919 41.9432 193.351C41.6755 193.078 41.3487 192.871 40.988 192.745C40.6274 192.62 40.2426 192.579 39.8635 192.626L39.5137 192.67L39.6473 192.505C39.6854 195.17 39.7172 197.707 39.7427 200.016C39.7681 202.325 39.4819 204.468 40.525 205.924C40.7329 206.255 40.9623 206.571 41.2118 206.872L41.9178 207.724C42.3503 208.246 42.7255 208.704 43.0372 209.092L43.7368 209.963C43.8258 210.059 43.9027 210.166 43.9657 210.281Z" fill="#FF9A6C"/>
<path d="M38.1083 213.714C37.8826 213.735 37.6567 213.674 37.4723 213.542C36.9735 213.24 36.516 212.874 36.1113 212.454C34.7878 211.082 33.5716 209.611 32.4734 208.053C31.1632 206.234 30.0629 204.568 29.2552 203.34C28.8673 202.704 28.562 202.221 28.3585 201.865C28.2349 201.692 28.1383 201.501 28.0723 201.299C28.2233 201.448 28.3557 201.614 28.4666 201.795L29.4524 203.207C30.2855 204.409 31.424 206.062 32.7341 207.856C33.8258 209.407 35.0065 210.894 36.2703 212.308C36.6516 212.733 37.0781 213.114 37.5423 213.446C37.7227 213.552 37.9121 213.642 38.1083 213.714Z" fill="#FF9A6C"/>
<path d="M59.2436 205.948L52.8518 205.516L50.9438 200.281L50.594 196.758C50.5193 195.924 50.1352 195.148 49.5173 194.583C48.8993 194.018 48.0923 193.705 47.255 193.705H47.1914L47.5476 202.336L48.8641 207.697L54.0602 210.763H60.4202L59.2436 205.948Z" fill="#FFBF9D"/>
<path d="M59.2436 205.948L52.8518 205.516L50.9438 200.281L50.594 196.758C50.5193 195.924 50.1352 195.148 49.5173 194.583C48.8993 194.018 48.0923 193.705 47.255 193.705H47.1914L47.5476 202.336L48.8641 207.697L54.0602 210.763" fill="#FFBF9D"/>
<path d="M54.0585 210.763C53.9281 210.713 53.8025 210.652 53.6833 210.579L52.6402 210L48.8242 207.8H48.7797V207.755C48.3917 206.216 47.9402 204.397 47.4377 202.4V202.368C47.3233 199.773 47.1961 196.841 47.0625 193.738V193.572H47.2279C47.2851 193.572 47.3551 193.572 47.4187 193.572C48.1874 193.599 48.9259 193.879 49.5201 194.367C50.1144 194.856 50.5314 195.526 50.7068 196.275C50.7818 196.621 50.8307 196.972 50.8531 197.325L50.9485 198.342C51.0184 198.978 51.0757 199.665 51.1393 200.295V200.257C51.8389 202.209 52.4685 203.977 53.0473 205.51L52.9391 205.427L57.6137 205.796L58.8857 205.917C59.0337 205.924 59.1807 205.945 59.3246 205.981C59.1766 205.996 59.0274 205.996 58.8794 205.981L57.6074 205.923L52.9328 205.663H52.7865V205.593C52.2205 204.066 51.5717 202.305 50.8785 200.365V200.327C50.8149 199.691 50.7449 199.055 50.675 198.374C50.6432 198.037 50.605 197.7 50.5732 197.356C50.5502 197.019 50.5035 196.683 50.4333 196.352C50.2734 195.673 49.8947 195.066 49.3558 194.623C48.8168 194.181 48.1473 193.928 47.4505 193.903H47.1897L47.3487 193.731C47.4695 196.829 47.5904 199.767 47.6921 202.362C48.1755 204.365 48.608 206.178 48.9641 207.73L48.9069 207.653L52.6847 209.943L53.7023 210.579C53.8286 210.625 53.9483 210.687 54.0585 210.763Z" fill="#FF9A6C"/>
<path d="M196.155 104.107C190.679 83.227 185.622 58.9509 155.088 61.1133C155.088 61.1133 136.275 64.7321 127.346 78.616C122.086 86.7822 117.532 121.991 116.629 149.797C116.591 150.929 117.062 158.822 117.03 159.929L197.84 166.657H212.423C212.423 166.657 211.514 151.909 207.126 137.599C202.833 123.689 198.094 111.472 196.155 104.107Z" fill="#494A50"/>
<path d="M151.03 69.0695L152.938 67.2441L173.576 75.563C175.017 75.6434 176.375 76.2608 177.382 77.2933C178.39 78.3259 178.975 79.6986 179.02 81.1407L178.836 148.391C178.836 152.951 177.952 156.901 175.198 160.533L172.298 164.349C165.689 173.075 152.092 172.356 146.858 162.746C146.542 162.198 146.299 161.613 146.132 161.003C146.001 160.509 145.897 160.008 145.821 159.502C145.185 154.09 145.185 149.396 145.185 149.396C144.816 143.456 144.695 141.02 144.695 141.077C144.695 141.135 132.051 139.621 128.636 123.397C126.938 115.326 127.256 104.221 127.733 93.2947C128.382 78.1897 138.876 69.0504 151.03 69.0695Z" fill="#FFBF9D"/>
<path d="M156.342 104.1C156.365 104.647 156.601 105.163 156.999 105.538C157.397 105.913 157.925 106.119 158.472 106.11C158.74 106.118 159.007 106.073 159.257 105.977C159.507 105.88 159.735 105.734 159.928 105.548C160.121 105.362 160.274 105.139 160.379 104.893C160.484 104.646 160.539 104.381 160.539 104.113C160.516 103.567 160.282 103.051 159.885 102.675C159.489 102.299 158.962 102.091 158.415 102.097C158.146 102.088 157.879 102.134 157.628 102.23C157.377 102.327 157.148 102.473 156.955 102.66C156.762 102.847 156.608 103.071 156.502 103.318C156.397 103.565 156.343 103.831 156.342 104.1Z" fill="#494A50"/>
<path d="M134.793 104.66C134.813 105.207 135.046 105.725 135.444 106.102C135.841 106.479 136.37 106.685 136.917 106.676C137.185 106.684 137.452 106.638 137.702 106.541C137.952 106.445 138.18 106.299 138.373 106.113C138.566 105.927 138.72 105.705 138.826 105.458C138.932 105.212 138.988 104.947 138.991 104.679C138.969 104.132 138.734 103.614 138.336 103.237C137.938 102.86 137.408 102.654 136.86 102.663C136.592 102.655 136.325 102.7 136.075 102.796C135.825 102.893 135.597 103.039 135.404 103.225C135.212 103.411 135.058 103.634 134.953 103.88C134.848 104.127 134.794 104.392 134.793 104.66Z" fill="#494A50"/>
<path d="M129.884 97.6316C130.158 97.8924 131.684 96.6331 133.942 96.5314C136.2 96.4296 137.911 97.4663 138.146 97.1674C138.26 97.0402 137.968 96.5314 137.224 96.0671C136.21 95.441 135.029 95.1413 133.84 95.2085C132.666 95.2608 131.54 95.6889 130.628 96.4296C129.961 97.0084 129.744 97.5172 129.884 97.6316Z" fill="#494A50"/>
<path d="M152.27 96.8421C152.569 97.0711 153.968 95.6655 156.201 95.3284C158.433 94.9914 160.246 95.8563 160.443 95.5447C160.544 95.4048 160.207 94.9532 159.412 94.5462C158.343 94.0277 157.139 93.8501 155.965 94.0374C154.801 94.2132 153.723 94.7544 152.887 95.5828C152.289 96.2061 152.13 96.7594 152.27 96.8421Z" fill="#494A50"/>
<path d="M144.906 114.296C144.906 114.169 143.494 113.997 141.205 113.819C140.626 113.787 140.073 113.704 139.933 113.316C139.852 112.723 139.956 112.119 140.232 111.586C140.702 110.162 141.198 108.674 141.714 107.134C143.768 100.774 145.224 95.5466 144.97 95.4639C144.716 95.3812 142.839 100.482 140.785 106.848C140.289 108.419 139.818 109.914 139.373 111.345C139.189 112.013 138.852 112.776 139.189 113.622C139.281 113.821 139.418 113.996 139.589 114.134C139.76 114.271 139.96 114.368 140.174 114.417C140.498 114.487 140.829 114.517 141.16 114.506C143.482 114.487 144.9 114.429 144.906 114.296Z" fill="#494A50"/>
<path d="M144.684 141.09C152.396 140.824 159.883 138.419 166.308 134.145C166.308 134.145 161.372 145.745 144.925 145.039L144.684 141.09Z" fill="#FF9A6C"/>
<path d="M151.96 118.887C151.63 118.508 151.226 118.2 150.774 117.981C150.321 117.763 149.829 117.638 149.327 117.615C147.909 117.533 146.91 117.711 146.147 118.83C145.998 119.106 145.907 119.41 145.88 119.723C145.853 120.036 145.889 120.351 145.988 120.649C146.153 120.91 146.032 120.916 146.287 121.1C147.209 121.747 148.251 122.203 149.352 122.442C150.446 122.69 151.705 122.442 152.272 121.546C152.495 121.123 152.585 120.643 152.529 120.168C152.473 119.693 152.275 119.247 151.96 118.887Z" fill="#FF9A6C"/>
<path d="M151.73 86.4962C152.023 87.0686 153.963 86.4962 156.354 86.4326C158.745 86.369 160.736 86.8142 160.965 86.2227C161.067 85.9429 160.647 85.4214 159.795 84.9507C158.695 84.3782 157.466 84.1 156.227 84.143C155.002 84.168 153.806 84.5169 152.761 85.1542C151.959 85.6758 151.603 86.2164 151.73 86.4962Z" fill="#494A50"/>
<path d="M130.207 93.5485C130.627 94.0382 132.16 93.4276 134.023 93.3132C135.887 93.1987 137.489 93.4785 137.839 92.9252C137.985 92.6581 137.712 92.1556 136.993 91.7041C136.039 91.158 134.94 90.9203 133.845 91.0236C132.747 91.095 131.7 91.5087 130.85 92.2065C130.207 92.7662 130.016 93.3068 130.207 93.5485Z" fill="#494A50"/>
<path d="M178.608 109.842C178.608 109.842 169.92 111.941 157.62 85.3879C153.423 76.3504 145.275 67.2429 145.275 67.2429L152.907 66.1426C152.907 66.1426 175.708 72.5662 176.09 72.8524C176.471 73.1386 181.845 84.6438 181.845 84.6438L178.608 109.842Z" fill="#494A50"/>
<path d="M175.758 108.782C175.7 107.56 176.966 104.616 178.155 104.368C181.335 103.732 187.148 103.674 187.613 111.834C188.249 122.983 176.922 121.317 176.883 120.999C176.845 120.681 175.961 112.986 175.758 108.782Z" fill="#FFBF9D"/>
<path d="M180.051 116.559C180.096 116.521 180.249 116.687 180.586 116.82C181.06 116.99 181.582 116.97 182.042 116.763C183.193 116.267 184.077 114.34 184.02 112.311C183.991 111.353 183.753 110.413 183.32 109.557C183.196 109.215 182.99 108.908 182.721 108.663C182.452 108.419 182.127 108.243 181.775 108.151C181.548 108.105 181.312 108.139 181.107 108.248C180.903 108.357 180.743 108.535 180.656 108.749C180.522 109.067 180.611 109.29 180.547 109.309C180.484 109.328 180.299 109.137 180.363 108.673C180.409 108.392 180.551 108.136 180.764 107.948C180.908 107.823 181.076 107.729 181.257 107.67C181.438 107.611 181.63 107.589 181.819 107.604C182.283 107.668 182.722 107.849 183.095 108.131C183.468 108.412 183.763 108.785 183.95 109.214C184.477 110.154 184.767 111.208 184.796 112.285C184.853 114.537 183.823 116.706 182.252 117.259C181.958 117.363 181.644 117.4 181.334 117.367C181.023 117.334 180.724 117.232 180.458 117.068C180.083 116.852 179.988 116.604 180.051 116.559Z" fill="#FF9A6C"/>
<path d="M153.397 119.338C153.365 119.625 151.457 119.58 149.199 120.019C146.942 120.458 145.173 121.164 145.034 120.916C144.894 120.668 146.566 119.497 149.015 119.046C151.464 118.594 153.448 119.103 153.397 119.338Z" fill="#494A50"/>
<path d="M240.527 205.738C240.527 205.738 249.864 197.744 252.573 197.528C255.283 197.311 262.393 198.641 262.393 198.641C262.393 198.641 266.89 198.679 269.122 198.399C271.453 198.029 273.835 198.146 276.118 198.742C276.792 198.946 277.638 200.619 275.654 201.763C274.814 202.247 266.648 202.8 266.648 202.8L287.076 208.632L284.424 210.82C284.066 211.117 283.618 211.285 283.152 211.297L253.763 212.34L252.414 215.628L240.527 205.738Z" fill="#FFBF9D"/>
<path d="M262.826 205.745H272.366C272.366 205.745 275.712 201.293 276.92 199.455C277.982 197.833 279.254 197.356 280.367 197.738C280.657 197.843 280.899 198.051 281.048 198.323C281.154 198.518 281.21 198.736 281.21 198.959C281.21 199.181 281.154 199.399 281.048 199.595L276.85 207.424L279.051 206.686C279.051 206.686 283.452 202.374 284.31 201.375C285.169 200.377 288.298 196.179 291.071 199.238L287.255 203.512L291.071 200.803C291.071 200.803 294.136 198.17 295.771 201.305L284.323 210.947" fill="#FFBF9D"/>
<path d="M252.893 201.783C253.014 201.724 253.142 201.679 253.274 201.649C253.644 201.525 254.025 201.438 254.413 201.389C255.854 201.196 257.322 201.348 258.693 201.834C259.651 202.165 260.574 202.591 261.447 203.106C261.917 203.386 262.394 203.691 262.878 204.028L263.603 204.543C263.832 204.709 264.118 204.925 264.302 205.027C266.719 205.211 269.486 205.376 272.38 205.58L272.24 205.637C273.136 204.575 274.014 203.417 274.866 202.215C275.203 201.745 275.502 201.268 275.827 200.797C276.151 200.326 276.425 199.837 276.768 199.392C277.096 198.929 277.471 198.503 277.887 198.12C278.1 197.935 278.332 197.775 278.581 197.643C278.846 197.489 279.153 197.421 279.458 197.445H279.401C279.664 197.401 279.933 197.411 280.192 197.473C280.451 197.535 280.694 197.649 280.908 197.808C281.098 197.989 281.243 198.212 281.33 198.46C281.418 198.708 281.445 198.972 281.411 199.233V199.264C279.592 202.521 278.008 205.357 276.787 207.532C276.654 207.934 276.434 208.302 276.142 208.61C275.851 208.918 275.496 209.158 275.102 209.313C274.532 209.55 273.924 209.679 273.308 209.695C272.929 209.716 272.549 209.716 272.17 209.695C272.037 209.699 271.905 209.686 271.775 209.657H272.17C272.424 209.657 272.806 209.657 273.302 209.612C273.9 209.576 274.488 209.436 275.038 209.199C275.401 209.044 275.727 208.814 275.994 208.524C276.26 208.233 276.461 207.888 276.584 207.513L281.112 199.163V199.22C281.139 199.01 281.116 198.797 281.047 198.597C280.977 198.397 280.862 198.216 280.711 198.069C280.34 197.812 279.884 197.711 279.439 197.789H279.388C279.164 197.785 278.944 197.845 278.752 197.961C278.521 198.077 278.307 198.224 278.116 198.399C277.714 198.756 277.354 199.157 277.041 199.595C276.405 200.485 275.833 201.503 275.133 202.419C274.275 203.634 273.391 204.785 272.481 205.86L272.43 205.923H272.348C269.435 205.707 266.726 205.542 264.232 205.319C263.948 205.169 263.679 204.99 263.431 204.785L262.712 204.27C262.242 203.933 261.771 203.634 261.313 203.347C260.459 202.834 259.556 202.408 258.617 202.075C257.277 201.579 255.841 201.396 254.419 201.541C254.037 201.58 253.659 201.649 253.287 201.745C253.156 201.767 253.025 201.779 252.893 201.783Z" fill="#FF9A6C"/>
<path d="M291.09 199.238C290.992 199.429 290.868 199.604 290.721 199.76C290.46 200.084 290.085 200.548 289.608 201.108C288.667 202.24 287.344 203.786 285.862 205.477C284.38 207.169 283.108 208.772 282.008 209.777C281.585 210.184 281.125 210.55 280.634 210.871C280.46 211 280.26 211.091 280.049 211.138C280.212 211.001 280.384 210.876 280.564 210.763C281.015 210.407 281.44 210.02 281.836 209.605C282.873 208.575 284.081 206.94 285.595 205.268C287.108 203.595 288.431 202.049 289.411 200.955L290.594 199.683C290.739 199.514 290.906 199.364 291.09 199.238Z" fill="#FF9A6C"/>
<path d="M285.857 199.684C285.52 200.176 285.132 200.633 284.699 201.045C283.955 201.859 282.906 202.953 281.736 204.174C280.775 205.166 279.878 206.082 279.192 206.775C278.434 207.082 277.641 207.295 276.832 207.411C277.036 207.309 277.249 207.226 277.468 207.163L279.134 206.527L279.083 206.559C279.77 205.821 280.648 204.899 281.627 203.913C282.798 202.705 283.873 201.623 284.661 200.854C285.026 200.431 285.426 200.04 285.857 199.684Z" fill="#FF9A6C"/>
<path d="M208.874 158.281C208.874 158.281 222.586 161.817 223.928 180.452C224.697 191.073 219.043 225.182 219.043 225.182L239.294 204.385L257.343 216.94C257.343 216.94 232.775 246.94 227.127 251.474C221.479 256.009 212.423 263.247 209.497 262.655C206.571 262.064 206.559 248.53 206.559 248.53V173.8L208.874 158.281Z" fill="#91E3DF"/>
<path d="M110.295 160.564C110.295 160.564 98.097 164.578 98.5804 188.428C99.0637 212.278 98.6885 220.285 98.6885 220.285L80.4035 200.931L65.2285 217.684C65.2285 217.684 82.2224 242.933 94.1093 255.208C105.316 266.764 115.275 256.728 118.513 248.6C121.133 242.017 123.244 216.984 123.244 216.984L110.295 160.564Z" fill="#91E3DF"/>
<g opacity="0.3">
<path d="M209.937 201.211C211.044 194.215 211.336 186.64 208.15 180.223C200.334 199.544 200.683 221.734 203.482 242.207L209.676 259.92C213.581 248.052 209.874 235.408 209.956 223.032C210.007 215.979 208.837 208.188 209.937 201.211Z" fill="black"/>
</g>
<path d="M107.758 175.739C107.758 175.739 115.911 230.588 117.489 235.39C119.066 240.192 119.066 254.349 119.066 254.349C119.066 254.349 110.512 270.287 109.984 281.36L213.06 281.576L206.363 236.058C206.15 233.184 206.099 230.3 206.211 227.421C206.643 219.401 207.26 202.21 209.562 191.639C212.234 179.352 208.634 158.326 208.634 158.326L177.845 150.738C170.556 161.213 152.405 161.353 145.205 150.738L110.454 160.564L107.758 175.739Z" fill="#91E3DF"/>
<path d="M208.385 233.882C208.459 233.704 208.562 233.538 208.69 233.393C208.906 233.094 209.231 232.661 209.638 232.121C210.696 230.742 211.879 229.464 213.174 228.305C214.491 227.172 215.96 226.228 217.537 225.5C218.173 225.233 218.643 225.029 218.993 224.915C219.172 224.838 219.36 224.784 219.553 224.756C219.623 224.889 216.43 225.913 213.39 228.572C212.116 229.719 210.922 230.951 209.816 232.261C209.378 232.835 208.9 233.377 208.385 233.882Z" fill="#494A50"/>
<path d="M112.935 232.719C112.871 232.719 112.636 231.606 111.854 229.933C110.845 227.749 109.373 225.811 107.538 224.254C105.704 222.697 103.552 221.56 101.232 220.921C99.4515 220.425 98.294 220.374 98.3067 220.285C98.5749 220.251 98.8463 220.251 99.1145 220.285C99.8483 220.348 100.576 220.472 101.29 220.654C103.671 221.24 105.885 222.37 107.758 223.955C109.621 225.547 111.095 227.544 112.07 229.793C112.363 230.469 112.604 231.166 112.788 231.879C112.874 232.151 112.923 232.434 112.935 232.719Z" fill="#494A50"/>
<path d="M113.595 202.997C113.425 202.939 113.266 202.853 113.125 202.743C112.838 202.565 112.431 202.285 111.942 201.916C110.675 200.956 109.49 199.892 108.399 198.736C107.315 197.58 106.298 196.364 105.353 195.092C104.931 194.585 104.56 194.037 104.246 193.457C104.705 193.922 105.13 194.42 105.518 194.945C106.294 195.88 107.362 197.165 108.628 198.507C109.711 199.65 110.862 200.727 112.075 201.731C112.605 202.125 113.113 202.547 113.595 202.997Z" fill="#494A50"/>
<path d="M185.546 232.686C185.546 232.686 185.546 232.73 185.464 232.813L185.196 233.163C184.942 233.461 184.605 233.932 184.109 234.479C182.732 236.053 181.244 237.525 179.657 238.887C177.292 240.916 174.772 242.757 172.12 244.394C168.883 246.384 165.539 248.196 162.103 249.819C158.453 251.556 154.929 253.101 151.736 254.539C148.544 255.976 145.688 257.292 143.329 258.482C140.969 259.671 139.086 260.689 137.802 261.426C137.166 261.783 136.67 262.062 136.333 262.279L135.945 262.495C135.856 262.539 135.811 262.565 135.805 262.558C135.84 262.522 135.881 262.492 135.926 262.469L136.294 262.221C136.625 262.012 137.102 261.694 137.738 261.312C139.01 260.542 140.867 259.48 143.22 258.272C145.574 257.063 148.429 255.728 151.616 254.259C154.802 252.79 158.319 251.257 161.957 249.52C165.383 247.9 168.723 246.102 171.961 244.134C174.603 242.525 177.12 240.72 179.492 238.734C181.092 237.396 182.603 235.953 184.013 234.415C184.522 233.888 184.878 233.43 185.139 233.143L185.438 232.819L185.546 232.686Z" fill="#494A50"/>
<path d="M110.219 280.502V280.368C110.219 280.26 110.219 280.133 110.219 279.967C110.219 279.598 110.276 279.083 110.314 278.416C110.559 276.481 110.948 274.568 111.478 272.692C113.432 266.116 116.094 259.772 119.415 253.771V253.853C119.002 247.888 118.385 241.222 117.673 234.214C116.312 220.972 114.887 209.015 113.857 200.353C113.335 196.041 112.909 192.543 112.585 190.107C112.445 188.911 112.337 187.97 112.254 187.315L112.178 186.59C112.169 186.507 112.169 186.424 112.178 186.342C112.204 186.42 112.221 186.501 112.229 186.583C112.254 186.762 112.292 187.003 112.343 187.309C112.432 187.945 112.566 188.892 112.731 190.088C113.055 192.524 113.513 196.015 114.086 200.327C115.186 208.977 116.63 220.934 118.01 234.175C118.722 241.171 119.333 247.862 119.721 253.834V253.879V253.917C116.397 259.894 113.709 266.204 111.701 272.742C111.145 274.608 110.72 276.51 110.429 278.435C110.371 279.071 110.321 279.611 110.289 279.974C110.289 280.139 110.289 280.273 110.244 280.374C110.242 280.418 110.233 280.461 110.219 280.502Z" fill="#494A50"/>
<path d="M210.827 177.018C210.836 177.108 210.836 177.2 210.827 177.291C210.827 177.488 210.827 177.749 210.827 178.092C210.827 178.792 210.827 179.829 210.77 181.158C210.7 183.823 210.426 187.671 209.949 192.415C209.472 197.16 208.798 202.788 208.098 209.047C207.399 215.305 206.712 222.193 206.496 229.456C206.345 236.279 206.815 243.102 207.901 249.84C208.817 256.072 209.898 261.637 210.731 266.331C211.565 271.025 212.213 274.822 212.57 277.461C212.76 278.784 212.868 279.814 212.945 280.507C212.945 280.845 213.002 281.143 213.021 281.302C213.03 281.393 213.03 281.485 213.021 281.576C212.995 281.489 212.978 281.399 212.97 281.309C212.97 281.112 212.907 280.851 212.856 280.52C212.76 279.821 212.633 278.797 212.417 277.48C212.029 274.847 211.367 271.05 210.509 266.369C209.65 261.688 208.537 256.123 207.602 249.884C206.497 243.129 206.016 236.286 206.165 229.443C206.388 222.167 207.094 215.273 207.8 209.015C208.505 202.756 209.231 197.128 209.708 192.39C210.185 187.652 210.515 183.816 210.63 181.152C210.712 179.822 210.719 178.792 210.744 178.092C210.744 177.749 210.744 177.488 210.744 177.291C210.763 177.198 210.791 177.106 210.827 177.018Z" fill="#494A50"/>
<g opacity="0.3">
<path d="M112.476 188.771C110.718 206.336 112.754 224.074 118.448 240.784L112.476 188.771Z" fill="black"/>
</g>
<g opacity="0.3">
<path d="M176.236 249.54C168.426 256.714 160.59 262.845 150.98 266.261C158.225 266.897 165.532 264.105 171.129 259.468C176.726 254.832 180.713 249.928 183.277 243.148L176.236 249.54Z" fill="black"/>
</g>
<path d="M167.337 257.439C167.273 257.375 172.132 252.917 178.187 247.485C184.241 242.054 189.202 237.71 189.259 237.78C189.317 237.85 184.464 242.302 178.409 247.734C172.355 253.165 167.4 257.509 167.337 257.439Z" fill="#494A50"/>
<path d="M184.612 122.843C184.612 123.632 184.378 124.403 183.94 125.059C183.501 125.715 182.878 126.226 182.149 126.528C181.42 126.83 180.618 126.908 179.844 126.754C179.07 126.599 178.36 126.219 177.802 125.661C177.245 125.102 176.866 124.391 176.713 123.617C176.559 122.843 176.639 122.041 176.942 121.313C177.245 120.584 177.757 119.962 178.414 119.524C179.07 119.087 179.842 118.854 180.631 118.855C181.154 118.855 181.672 118.959 182.156 119.159C182.639 119.36 183.079 119.653 183.448 120.024C183.818 120.394 184.111 120.834 184.311 121.318C184.511 121.801 184.613 122.32 184.612 122.843Z" fill="#455A64"/>
<path d="M208.34 175.21C207.166 165.458 205.991 155.706 204.817 145.954L179.599 138.322C179.11 155.723 176.063 175.261 171.688 192.109C181.016 195.128 190.875 196.155 200.626 195.123C201.05 190.417 201.474 185.711 201.898 181.004C202.525 184.553 203.161 188.1 203.806 191.645C206.451 190.163 208.009 187.193 208.537 184.222C209.065 181.252 208.703 178.25 208.34 175.21Z" fill="#494A50"/>
<path d="M188.606 195.258C188.606 195.258 188.606 195.137 188.682 194.895C188.758 194.654 188.822 194.259 188.93 193.82C189.153 192.866 189.477 191.48 189.897 189.705C190.724 186.125 191.945 180.954 193.134 174.499C194.585 166.94 195.503 159.29 195.882 151.603C196.366 142.201 195.51 132.779 193.338 123.619C191.188 114.439 187.21 105.787 181.642 98.1787C181.006 97.3201 180.37 96.4488 179.657 95.6347C178.945 94.8206 178.315 94.0256 177.597 93.2942L176.547 92.1812L175.479 91.1191C174.779 90.4068 174.054 89.7517 173.354 89.0903C170.524 86.4699 167.758 84.1676 165.284 82.0052C162.81 79.8428 160.603 77.8521 158.771 75.9887C158.307 75.5244 157.887 75.0537 157.499 74.6213C157.111 74.1888 156.685 73.7499 156.329 73.3493C155.973 72.9486 155.61 72.5225 155.279 72.1345L154.383 70.9897C153.797 70.2774 153.359 69.5905 152.945 69.0117C152.532 68.433 152.227 67.9242 151.979 67.5044L151.419 66.5631C151.292 66.3469 151.234 66.2324 151.234 66.2324C151.234 66.2324 151.311 66.3342 151.451 66.5441L152.036 67.4726C152.29 67.8797 152.608 68.3885 153.028 68.9545C153.448 69.5205 153.893 70.2265 154.484 70.9134L155.387 72.0455L156.443 73.2475C156.806 73.6736 157.2 74.0997 157.626 74.5195C158.052 74.9393 158.466 75.4226 158.936 75.8742C160.768 77.7249 162.988 79.6902 165.468 81.8462C167.948 84.0023 170.721 86.2982 173.571 88.9058C174.27 89.5418 175.008 90.2287 175.708 90.9347L176.782 91.9968L177.838 93.1161C178.563 93.8475 179.218 94.668 179.912 95.463C180.605 96.258 181.254 97.1229 181.921 98.007C187.514 105.646 191.505 114.336 193.656 123.555C195.84 132.748 196.697 142.205 196.2 151.641C195.806 159.33 194.862 166.982 193.376 174.537C192.155 180.999 190.902 186.163 190.037 189.737C189.598 191.518 189.248 192.917 189.006 193.839C188.886 194.297 188.79 194.647 188.727 194.902C188.663 195.156 188.606 195.258 188.606 195.258Z" fill="#455A64"/>
</g>
<defs>
<clipPath id="clip0_2510_4453">
<rect width="318" height="281" fill="white"/>
</clipPath>
</defs>
</svg>
