<svg width="366" height="276" viewBox="0 0 366 276" fill="none" xmlns="http://www.w3.org/2000/svg">
<path d="M290.832 261.204C311.495 261.204 328.245 253.221 328.245 243.373C328.245 233.524 311.495 225.541 290.832 225.541C270.17 225.541 253.42 233.524 253.42 243.373C253.42 253.221 270.17 261.204 290.832 261.204Z" fill="#A5A5A5"/>
<path d="M71.5766 270.013C92.2389 270.013 108.989 262.029 108.989 252.181C108.989 242.333 92.2389 234.35 71.5766 234.35C50.9142 234.35 34.1641 242.333 34.1641 252.181C34.1641 262.029 50.9142 270.013 71.5766 270.013Z" fill="#A5A5A5"/>
<path d="M49.3462 248.9H56.2051V237.159H49.3462V248.9Z" fill="#B16668"/>
<path d="M77.3887 240.014L84.2475 240.248L84.5915 227.826L77.3887 227.592V240.014Z" fill="#B16668"/>
<path d="M51.3951 153.899C51.3951 160.443 51.7392 198.39 51.7392 198.39C51.5781 200.271 49.7701 203.624 49.6237 210.41C49.4187 220.248 49.0527 243.035 49.0527 243.035C50.2374 243.615 51.5349 243.929 52.8539 243.955C54.1729 243.98 55.4814 243.716 56.6875 243.181C56.6875 243.181 63.9563 210.776 65.186 201.055C66.2547 192.549 68.114 169.454 68.114 169.454L73.3551 198.193C72.5501 201.766 72.2519 205.435 72.4694 209.092C72.7915 213.594 76.9639 236.176 76.9639 236.176C78.1591 236.851 79.488 237.255 80.8565 237.36C82.225 237.465 83.5999 237.268 84.8841 236.784C84.8841 236.784 85.2941 201.355 85.3673 197.256C85.4624 192.542 83.4055 151.996 83.4055 151.996L51.3951 153.899Z" fill="#37474F"/>
<path d="M56.2033 245.518V244.537C56.5693 244.537 56.7963 244.896 56.9353 245.774C57.0327 246.427 57.1646 247.075 57.3306 247.714C57.6377 248.915 58.0391 250.09 58.5311 251.227C59.4973 253.614 60.3099 254.507 62.5351 257.296C63.2939 258.069 64.0053 258.888 64.6652 259.748C65.0752 260.48 65.2216 262.537 64.5189 263.005C61.9276 264.733 57.9967 264.784 55.2151 263.964C54.1786 263.676 53.2471 263.096 52.5318 262.292C51.8165 261.489 51.3478 260.496 51.1818 259.433C51.0793 258.796 51.1159 258.152 51.0427 257.515C50.802 256.069 50.2143 254.703 49.3299 253.533C48.8108 252.852 48.3689 252.116 48.0123 251.337C47.434 249.925 47.8951 248.343 48.2611 246.945C48.5832 245.73 48.9273 244.398 49.3372 244.515V245.247C50.3157 246.014 51.5273 246.422 52.7702 246.404C53.7804 246.484 56.2107 246.279 56.2033 245.518Z" fill="#263238"/>
<path d="M84.321 238.133C84.6723 238.133 84.9651 238.653 85.785 239.502C86.9585 240.694 88.3214 241.683 89.8183 242.43C92.3876 243.718 97.3798 245.694 99.6344 246.712C101.047 247.349 100.981 249.054 99.5246 250.021C98.0679 250.987 94.5397 251.689 90.316 250.753C88.0102 250.24 85.009 248.11 83.1132 248.227C81.2173 248.344 77.6598 248.315 76.2616 247.349C74.8635 246.382 75.4198 244.318 75.8151 242.547C76.247 240.607 76.7887 237.591 77.4255 237.723V238.389C78.2527 239.641 82.5056 240.146 84.321 239.231V238.133Z" fill="#263238"/>
<path d="M68.0801 169.456C71.613 168.346 74.8607 166.477 77.5961 163.98C77.5961 163.98 75.7514 167.428 70.2761 170.642L72.9259 196.203L68.0801 169.456Z" fill="#263238"/>
<path d="M78.9769 138.238C74.4971 123.32 75.3828 110.685 74.541 106.82L86.0261 122.858C86.5122 128.145 87.2967 133.399 88.3758 138.596C89.7007 144.299 91.5088 151.406 93.6755 155.828C94.0686 156.607 94.7323 157.216 95.5421 157.541C97.7381 158.426 98.719 159.546 100.454 160.827C101.815 161.837 102.847 161.969 102.767 162.379C102.617 162.84 102.298 163.228 101.875 163.465C101.452 163.703 100.955 163.772 100.483 163.66C99.4357 163.441 98.4183 163.097 97.4526 162.635C98.4266 164.288 99.6627 165.771 101.113 167.027C104.436 169.919 104.912 171.961 99.3924 172.964C95.9301 173.601 92.8044 171.939 88.8589 164.751C87.3644 162.135 86.0605 159.414 84.9574 156.611C82.3222 149.291 80.3311 142.754 78.9769 138.238Z" fill="#B16668"/>
<path d="M73.6133 103.107C77.1781 103.737 80.7064 104.571 82.895 107.997C85.0837 111.423 88.246 127.593 88.246 127.593C88.246 127.593 83.649 130.821 78.3786 130.682L73.6133 103.107Z" fill="#16B3AC"/>
<path opacity="0.1" d="M73.6133 103.107C77.1781 103.737 80.7064 104.571 82.895 107.997C85.0837 111.423 88.246 127.593 88.246 127.593C88.246 127.593 83.649 130.821 78.3786 130.682L73.6133 103.107Z" fill="black"/>
<path d="M49.0463 109.115C46.6527 110.821 34.0257 139.34 33.5426 141.323C32.8911 144.024 33.1912 147.047 34.5161 148.028C35.841 149.009 38.7617 147.604 40.2916 146.111C43.2196 143.183 53.4676 121.852 53.4676 121.852L49.0463 109.115Z" fill="#9A4A4D"/>
<path d="M61.5999 103.174C55.7439 104.58 48.4239 106.929 45.8107 112.288C43.1974 117.646 39.2227 126.349 39.2227 126.349C41.9312 128.992 45.2349 130.945 48.8558 132.044L51.7838 126.92L51.3519 154.004C56.0733 157.445 73.4144 159.319 83.3549 152.057C83.3549 152.057 82.1398 119.586 82.1398 114.528C82.1398 109.469 79.3289 103.401 71.5771 102.947L61.5999 103.174Z" fill="#16B3AC"/>
<path opacity="0.1" d="M51.8266 126.853C51.8266 126.853 54.7546 121.795 55.3768 120.572L51.7168 133.016L51.8266 126.853Z" fill="black"/>
<path d="M72.6982 90.0272C77.9012 90.0272 82.119 85.8094 82.119 80.6064C82.119 75.4034 77.9012 71.1855 72.6982 71.1855C67.4952 71.1855 63.2773 75.4034 63.2773 80.6064C63.2773 85.8094 67.4952 90.0272 72.6982 90.0272Z" fill="#263238"/>
<path d="M56.4023 87.3027C56.4023 87.3027 57.9322 94.4763 58.5471 95.6548C58.9533 96.3824 59.6246 96.9252 60.421 97.1701L60.3185 92.1266L56.4023 87.3027Z" fill="#263238"/>
<path d="M58.3213 77.0268C57.7869 76.9658 57.2457 77.027 56.7385 77.2058C56.2313 77.3846 55.7713 77.6763 55.3933 78.0589C54.1416 79.3399 54.8443 83.3659 56.4034 87.3041L59.2802 87.6335L58.3213 77.0268Z" fill="#263238"/>
<path d="M60.1433 87.6399C59.565 87.9839 58.7452 86.8713 58.0351 86.132C57.3251 85.3927 54.9973 84.3679 53.8408 86.8054C52.6842 89.243 54.8656 92.5809 56.6956 93.1592C59.8432 94.1474 60.3556 92.1271 60.3556 92.1271L60.5825 103.839C64.4987 108.861 75.3689 108.436 70.8305 103.195V99.7325C72.2335 99.96 73.6571 100.034 75.0761 99.9521C77.3965 99.5935 78.8532 97.7561 79.5559 95.26C80.6832 91.234 81.1151 87.94 80.1562 80.0564C79.1094 71.3749 69.0078 71.2724 63.5544 74.7201C58.101 78.1678 60.1433 87.6399 60.1433 87.6399Z" fill="#B16668"/>
<path d="M60.1433 88.6075C59.8505 88.6075 58.7525 86.7848 58.0351 86.1333C57.0396 85.2256 58.3206 77.0272 58.3206 77.0272C57.9837 76.3101 57.8691 75.5086 57.9917 74.7258C58.1144 73.943 58.4686 73.2149 59.0087 72.6352C60.3702 71.1346 62.2734 69.2973 68.4515 70.0293C72.8435 70.5563 77.6601 71.9252 81.5397 70.0293C81.9003 71.2941 81.8741 72.6379 81.4645 73.8876C81.0548 75.1374 80.2805 76.2359 79.2412 77.0419C79.2412 77.0419 77.8357 77.9422 74.1172 78.3961C70.7026 78.6522 67.2714 78.5861 63.8692 78.1984C62.8005 78.052 62.5735 79.0915 61.9953 81.9243C61.5414 84.3765 61.1169 88.5928 60.1433 88.6075Z" fill="#263238"/>
<path d="M58.33 77.663L54.8457 75.7891C54.9576 75.5553 55.1156 75.3466 55.3101 75.1754C55.5047 75.0041 55.7318 74.8739 55.9779 74.7926C56.2239 74.7112 56.4839 74.6804 56.7422 74.702C57.0005 74.7235 57.2517 74.797 57.4809 74.918C57.9486 75.1783 58.2979 75.6089 58.456 76.1202C58.6142 76.6315 58.5691 77.1841 58.33 77.663Z" fill="#263238"/>
<path d="M70.7939 99.7264C70.7939 99.7264 65.6259 98.687 63.8179 97.7281C62.7541 97.1731 61.8819 96.3111 61.3145 95.2539C61.5876 96.3149 62.0704 97.3105 62.7345 98.1819C64.0594 99.8728 70.7865 101.11 70.7865 101.11L70.7939 99.7264Z" fill="#9A4A4D"/>
<path d="M69.5429 86.3378C69.5468 86.618 69.4397 86.8885 69.245 87.0901C69.0502 87.2916 68.7837 87.408 68.5034 87.4138C68.2264 87.4024 67.9646 87.2838 67.7734 87.083C67.5822 86.8823 67.4765 86.615 67.4786 86.3378C67.4747 86.0575 67.5818 85.7871 67.7765 85.5855C67.9713 85.3839 68.2378 85.2675 68.5181 85.2617C68.7951 85.2731 69.0569 85.3917 69.2481 85.5925C69.4393 85.7933 69.545 86.0605 69.5429 86.3378Z" fill="#263238"/>
<path d="M68.4518 82.4273L66.2558 83.6571C66.0963 83.3527 66.0605 82.9985 66.156 82.6684C66.2515 82.3383 66.4708 82.0578 66.7682 81.8856C66.9137 81.8078 67.0734 81.76 67.2378 81.7452C67.4021 81.7304 67.5678 81.7488 67.7249 81.7993C67.882 81.8499 68.0273 81.9315 68.1522 82.0394C68.2771 82.1473 68.379 82.2792 68.4518 82.4273Z" fill="#263238"/>
<path d="M70.3263 93.5059L72.698 94.3916C72.6471 94.5511 72.5644 94.6986 72.4548 94.8252C72.3452 94.9518 72.2111 95.0548 72.0605 95.1281C71.9099 95.2013 71.7461 95.2432 71.5789 95.2512C71.4116 95.2593 71.2445 95.2333 71.0876 95.1748C70.7687 95.0501 70.5109 94.8061 70.3688 94.4946C70.2267 94.183 70.2115 93.8284 70.3263 93.5059Z" fill="#9A4A4D"/>
<path d="M78.7938 83.2924L76.7734 81.7406C76.8672 81.6027 76.9884 81.4857 77.1294 81.3966C77.2704 81.3076 77.4282 81.2486 77.593 81.2232C77.7577 81.1978 77.926 81.2066 78.0872 81.249C78.2485 81.2914 78.3993 81.3666 78.5302 81.4698C78.7989 81.6823 78.9759 81.9896 79.0249 82.3286C79.0739 82.6676 78.9912 83.0125 78.7938 83.2924Z" fill="#263238"/>
<path d="M78.1717 86.0521C78.1631 86.2556 78.0949 86.4521 77.9756 86.6171C77.8563 86.7822 77.6911 86.9086 77.5005 86.9805C77.31 87.0525 77.1025 87.0669 76.9039 87.022C76.7052 86.9771 76.5242 86.8748 76.3831 86.7278C76.2421 86.5809 76.1474 86.3957 76.1107 86.1954C76.0741 85.995 76.0971 85.7883 76.1769 85.6009C76.2567 85.4135 76.3898 85.2537 76.5596 85.1413C76.7295 85.0289 76.9286 84.9689 77.1323 84.9688C77.2717 84.9716 77.4091 85.0019 77.5368 85.0579C77.6645 85.1139 77.7799 85.1945 77.8764 85.2951C77.9729 85.3957 78.0487 85.5143 78.0994 85.6442C78.15 85.7741 78.1746 85.9127 78.1717 86.0521Z" fill="#263238"/>
<path d="M72.8965 85.0645L73.2332 91.3011L76.4906 90.1885L72.8965 85.0645Z" fill="#9A4A4D"/>
<path d="M45.3055 158.711C45.2084 158.711 45.1153 158.672 45.0467 158.603C44.978 158.535 44.9395 158.442 44.9395 158.345V43.2156C44.9395 43.1185 44.978 43.0255 45.0467 42.9568C45.1153 42.8882 45.2084 42.8496 45.3055 42.8496C45.4025 42.8496 45.4956 42.8882 45.5643 42.9568C45.6329 43.0255 45.6715 43.1185 45.6715 43.2156V158.345C45.6715 158.442 45.6329 158.535 45.5643 158.603C45.4956 158.672 45.4025 158.711 45.3055 158.711Z" fill="#37474F"/>
<path d="M48.0866 53.2357C48.0866 52.0572 45.6491 48.8438 45.1586 48.8438C44.6682 48.8438 42.4941 51.9987 42.4941 53.2357C42.5164 53.481 42.6033 53.7159 42.7461 53.9165C42.8888 54.1172 43.0823 54.2763 43.3067 54.3777C43.9153 54.6881 44.5888 54.8499 45.2721 54.8499C45.9553 54.8499 46.6288 54.6881 47.2375 54.3777C47.4633 54.2773 47.6582 54.1186 47.8023 53.9179C47.9464 53.7172 48.0344 53.4818 48.0573 53.2357H48.0866Z" fill="#16B3AC"/>
<path opacity="0.1" d="M48.0866 53.2357C48.0866 52.0572 45.6491 48.8438 45.1586 48.8438C44.6682 48.8438 42.4941 51.9987 42.4941 53.2357C42.5164 53.481 42.6033 53.7159 42.7461 53.9165C42.8888 54.1172 43.0823 54.2763 43.3067 54.3777C43.9153 54.6881 44.5888 54.8499 45.2721 54.8499C45.9553 54.8499 46.6288 54.6881 47.2375 54.3777C47.4633 54.2773 47.6582 54.1186 47.8023 53.9179C47.9464 53.7172 48.0344 53.4818 48.0573 53.2357H48.0866Z" fill="black"/>
<path d="M61.4895 27.6892C61.4895 36.6928 54.4184 48.0681 45.1805 50.2201C35.8695 47.6215 28.8789 36.6928 28.8789 27.6892C28.8789 18.6856 34.6763 10.2676 45.1879 10.2676C55.6994 10.2676 61.4895 18.6783 61.4895 27.6892Z" fill="#16B3AC"/>
<path opacity="0.05" d="M29.4792 22.75C29.0758 24.3659 28.8742 26.0255 28.879 27.691C28.879 36.6946 35.8915 47.6234 45.1879 50.222C52.8666 48.4286 59.0447 40.2668 60.9113 32.3904C60.9113 32.3904 58.4811 41.0354 47.7865 41.7308C37.092 42.4262 28.4617 30.2018 29.4792 22.75Z" fill="black"/>
<path d="M34.8828 148.206C32.9357 147.65 30.9374 141.823 31.0838 138.09C31.2302 134.357 36.2517 118.209 36.9398 115.105C37.723 111.679 37.6718 109.074 38.3672 107.295C39.392 104.667 42.7592 103.225 42.7592 103.225C42.7592 103.225 47.1512 101.124 48.7323 100.809C50.3134 100.494 50.9283 101.541 50.7526 102.368C50.5769 103.196 50.0206 105.296 49.8742 106.438C49.7699 107.9 49.3424 109.32 48.6225 110.596C47.7953 111.921 44.4208 115.091 44.289 116.855C44.1573 118.619 43.1837 128.193 42.6274 135.155C42.1662 140.85 41.5953 143.207 40.3582 144.715C39.1211 146.223 36.3981 148.631 34.8828 148.206Z" fill="#B16668"/>
<path d="M309.688 230.572H302.734V242.475H309.688V230.572Z" fill="#FFA8A7"/>
<path d="M285.584 229.943L278.637 230.178L278.293 217.587L285.584 217.346V229.943Z" fill="#FFA8A7"/>
<path d="M307.44 142.007C307.44 148.646 308.48 188.518 308.48 188.518C308.641 190.428 310.478 193.825 310.625 200.706C310.83 210.683 309.966 236.522 309.966 236.522C308.765 237.111 307.451 237.43 306.114 237.457C304.777 237.483 303.451 237.217 302.228 236.676C302.228 236.676 296.094 201.094 294.85 191.219C293.767 182.603 291.922 159.187 291.922 159.187L288.167 187.354C288.971 190.977 289.262 194.696 289.031 198.4C288.701 202.967 286.029 226.069 286.029 226.069C284.814 226.755 283.462 227.165 282.071 227.27C280.679 227.375 279.282 227.172 277.977 226.677C277.977 226.677 274.464 191.541 274.383 187.354C274.295 182.574 276.696 133.801 276.696 133.801L307.44 142.007Z" fill="#16B3AC"/>
<path d="M280.196 128.298C284.676 113.372 283.79 100.738 284.632 96.873L273.147 112.911C272.66 118.2 271.876 123.456 270.797 128.656C269.472 134.359 267.664 141.466 265.497 145.888C265.104 146.665 264.44 147.271 263.631 147.593C261.435 148.479 260.454 149.599 258.719 150.887C257.358 151.89 256.325 152.022 256.406 152.432C256.562 152.888 256.883 153.269 257.305 153.5C257.728 153.732 258.222 153.797 258.69 153.684C259.737 153.463 260.754 153.119 261.72 152.659C260.745 154.31 259.509 155.794 258.06 157.051C254.737 159.935 254.261 161.977 259.781 162.98C263.243 163.617 266.368 161.955 270.314 154.767C271.816 152.146 273.127 149.421 274.238 146.612C276.851 139.307 278.842 132.807 280.196 128.298Z" fill="#FFA8A7"/>
<path d="M285.555 93.1602C281.99 93.7897 278.469 94.6242 276.281 98.0499C274.092 101.476 270.93 117.646 270.93 117.646C270.93 117.646 275.527 120.874 280.797 120.735L285.555 93.1602Z" fill="#E0E0E0"/>
<path d="M310.12 99.1777C312.514 100.876 325.141 129.395 325.624 131.386C326.268 134.087 325.975 137.117 324.65 138.091C323.325 139.064 320.405 137.666 318.875 136.173C315.947 133.245 305.662 111.922 305.662 111.922L310.12 99.1777Z" fill="#F28F8F"/>
<path d="M297.692 93.1517C303.511 94.5571 310.868 96.9069 313.473 102.265C316.079 107.623 320.061 116.32 320.061 116.32C317.351 118.963 314.045 120.916 310.421 122.014L307.493 116.89L307.925 143.938C303.204 147.378 285.862 149.245 275.922 141.991C275.922 141.991 277.144 109.512 277.144 104.461C277.144 99.4103 279.948 93.3347 287.707 92.8809L297.692 93.1517Z" fill="#F0F0F0"/>
<path d="M307.443 116.87C307.443 116.87 304.515 111.805 303.893 110.59L307.553 123.034L307.443 116.87Z" fill="#E0E0E0"/>
<path d="M302.736 239.039V238.043C302.069 238.336 300.54 244.229 297.765 246.747C295.569 248.745 292.583 251.058 291.821 253.284C291.06 255.509 295.986 256.885 298.036 256.519C300.415 256.102 304.544 254.426 305.576 252.859C306.608 251.293 307.098 249.016 307.94 247.881C308.782 246.747 310.722 245.466 311.175 244.148C311.424 243.416 311.132 241.842 310.78 240.488C310.429 239.134 310.107 237.904 309.69 238.021V238.753C308.698 239.529 307.471 239.943 306.213 239.925C305.195 240.056 302.728 239.815 302.736 239.039Z" fill="#263238"/>
<path d="M278.564 228.03C278.205 228.03 277.912 228.557 277.1 229.413C275.913 230.612 274.532 231.602 273.015 232.341C270.409 233.644 265.351 235.65 263.06 236.682C261.596 237.326 261.699 239.054 263.177 240.035C264.656 241.015 268.221 241.733 272.51 240.767C274.845 240.239 277.89 238.087 279.83 238.197C281.77 238.307 285.357 238.292 286.777 237.311C288.197 236.331 287.633 234.237 287.231 232.444C286.792 230.482 286.243 227.422 285.591 227.561V228.235C284.757 229.501 280.467 230.013 278.608 229.084L278.564 228.03Z" fill="#263238"/>
<path opacity="0.1" d="M291.936 159.185C288.342 158.064 285.037 156.17 282.252 153.637C282.252 153.637 284.126 157.136 289.674 160.386L288.489 184.915L291.936 159.185Z" fill="black"/>
<path d="M299.871 67.3034C300.393 67.2413 300.922 67.2994 301.418 67.4732C301.914 67.6471 302.364 67.932 302.733 68.3063C303.962 69.5653 303.706 71.8931 302.733 77.2367L298.934 77.6759L299.871 67.3034Z" fill="#263238"/>
<path d="M277.729 65.7397C276.911 65.7434 276.102 65.579 275.35 65.2566C274.186 64.5832 273.886 65.9081 274.516 67.0573C274.937 67.8794 275.562 68.58 276.331 69.0925C277.1 69.605 277.987 69.9123 278.908 69.9853C278.908 69.8243 279.998 67.0573 279.998 67.0573L277.729 65.7397Z" fill="#263238"/>
<path d="M298.093 77.6573C298.657 77.994 299.462 76.9253 300.158 76.1933C300.853 75.4613 303.122 74.4658 304.249 76.8521C305.377 79.2384 302.785 82.5178 301.248 83.5865C299.418 84.8602 298.093 83.8647 298.093 83.8647L297.691 93.1611C297.691 93.1611 295.67 98.0947 290.21 98.8341C284.749 99.5734 285.876 95.0789 287.67 92.8683V89.4864C287.67 89.4864 284.851 90.0427 283.519 89.6987C282.553 89.3942 281.678 88.855 280.972 88.1294C280.265 87.4039 279.75 86.5145 279.471 85.5409C277.97 80.5812 277.657 75.338 278.556 70.2348C279.947 61.7949 289.463 61.6558 294.792 65.0083C300.121 68.3609 298.093 77.6573 298.093 77.6573Z" fill="#FFA8A7"/>
<path d="M298.092 78.6085C298.371 78.6085 299.454 76.8224 300.157 76.1855C301.13 75.2998 299.871 67.2844 299.871 67.2844C299.871 67.2844 300.859 64.2466 298.934 62.2263C297.009 60.206 293.283 60.55 290.56 60.4549C287.215 60.4766 283.902 59.8114 280.824 58.5004C276.96 56.8168 276.667 56.6192 276.184 58.3174C275.7 60.0157 275.525 63.9099 277.838 66.5158L279.756 67.2478C279.756 67.2478 280.795 68.1628 284.404 68.602C287.733 68.8542 291.079 68.7905 294.396 68.4117C295.443 68.2726 295.669 69.2828 296.233 72.0717C296.724 74.4653 297.133 78.5865 298.092 78.6085Z" fill="#263238"/>
<path d="M299.864 67.9056L303.275 66.0756C303.166 65.8465 303.012 65.6418 302.822 65.4738C302.632 65.3058 302.41 65.178 302.169 65.098C301.928 65.018 301.674 64.9875 301.421 65.0083C301.168 65.0291 300.923 65.1009 300.698 65.2192C300.24 65.4734 299.897 65.8946 299.742 66.395C299.587 66.8954 299.63 67.4365 299.864 67.9056Z" fill="#263238"/>
<path d="M287.676 89.4789C287.676 89.4789 292.734 88.4614 294.498 87.5245C295.539 86.983 296.392 86.1381 296.943 85.1016C296.676 86.1372 296.203 87.1082 295.552 87.9564C294.264 89.6107 287.676 90.8258 287.676 90.8258V89.4789Z" fill="#F28F8F"/>
<path d="M288.885 76.222C288.892 76.4216 288.958 76.6146 289.074 76.777C289.19 76.9394 289.351 77.0641 289.538 77.1356C289.724 77.207 289.928 77.222 290.122 77.1787C290.317 77.1354 290.495 77.0357 290.634 76.8921C290.773 76.7484 290.866 76.5672 290.902 76.3709C290.939 76.1746 290.916 75.9719 290.839 75.7881C290.761 75.6043 290.63 75.4475 290.464 75.3372C290.297 75.227 290.102 75.1681 289.902 75.168C289.766 75.1699 289.632 75.1987 289.507 75.2528C289.382 75.3069 289.269 75.3852 289.174 75.4832C289.08 75.5812 289.005 75.6969 288.956 75.8237C288.906 75.9505 288.882 76.0859 288.885 76.222Z" fill="#263238"/>
<path d="M290.145 72.029L292.341 73.2295C292.497 72.9322 292.531 72.586 292.437 72.2637C292.343 71.9415 292.127 71.6684 291.835 71.502C291.691 71.4192 291.531 71.3672 291.366 71.349C291.201 71.3309 291.034 71.347 290.875 71.3965C290.716 71.446 290.569 71.5277 290.444 71.6365C290.318 71.7454 290.216 71.879 290.145 72.029Z" fill="#263238"/>
<path d="M288.965 83.2637L286.652 84.1421C286.702 84.2977 286.784 84.4417 286.891 84.5652C286.998 84.6888 287.129 84.7895 287.276 84.8613C287.423 84.9331 287.583 84.9744 287.746 84.9829C287.909 84.9914 288.073 84.9668 288.226 84.9107C288.541 84.7878 288.794 84.5463 288.933 84.2383C289.071 83.9303 289.083 83.5803 288.965 83.2637Z" fill="#F28F8F"/>
<path d="M279.384 73.4769L281.361 71.9543C281.268 71.8183 281.148 71.7029 281.008 71.6154C280.868 71.528 280.712 71.4705 280.549 71.4464C280.386 71.4223 280.22 71.4323 280.061 71.4756C279.902 71.5189 279.754 71.5947 279.626 71.6981C279.367 71.9082 279.197 72.2091 279.153 72.5397C279.108 72.8702 279.191 73.2054 279.384 73.4769Z" fill="#263238"/>
<path d="M280.518 75.935C280.525 76.1348 280.591 76.3281 280.707 76.4907C280.824 76.6532 280.985 76.7779 281.172 76.8491C281.359 76.9203 281.563 76.9349 281.758 76.891C281.953 76.8471 282.131 76.7467 282.269 76.6023C282.407 76.458 282.5 76.276 282.536 76.0792C282.571 75.8825 282.548 75.6796 282.469 75.4959C282.39 75.3123 282.258 75.156 282.091 75.0466C281.924 74.9372 281.728 74.8796 281.528 74.8809C281.255 74.8885 280.996 75.0034 280.807 75.2007C280.618 75.398 280.514 75.6618 280.518 75.935Z" fill="#263238"/>
<path d="M286.06 75.1445L285.724 81.2348L282.547 80.1514L286.06 75.1445Z" fill="#F28F8F"/>
<path d="M313.868 148.763C313.771 148.763 313.678 148.725 313.609 148.656C313.541 148.587 313.502 148.494 313.502 148.397V33.2683C313.502 33.1713 313.541 33.0782 313.609 33.0095C313.678 32.9409 313.771 32.9023 313.868 32.9023C313.965 32.9023 314.058 32.9409 314.127 33.0095C314.195 33.0782 314.234 33.1713 314.234 33.2683V148.397C314.234 148.494 314.195 148.587 314.127 148.656C314.058 148.725 313.965 148.763 313.868 148.763Z" fill="#37474F"/>
<path d="M311.1 43.2885C311.1 42.1173 313.537 38.8965 314.028 38.8965C314.518 38.8965 316.692 42.0514 316.692 43.2885C316.671 43.5339 316.584 43.7692 316.441 43.9699C316.298 44.1707 316.104 44.3297 315.88 44.4304C315.271 44.7408 314.597 44.9026 313.914 44.9026C313.231 44.9026 312.557 44.7408 311.949 44.4304C311.717 44.3355 311.515 44.179 311.365 43.9777C311.215 43.7765 311.124 43.5381 311.1 43.2885Z" fill="#16B3AC"/>
<path opacity="0.1" d="M311.1 43.2885C311.1 42.1173 313.537 38.8965 314.028 38.8965C314.518 38.8965 316.692 42.0514 316.692 43.2885C316.671 43.5339 316.584 43.7692 316.441 43.9699C316.298 44.1707 316.104 44.3297 315.88 44.4304C315.271 44.7408 314.597 44.9026 313.914 44.9026C313.231 44.9026 312.557 44.7408 311.949 44.4304C311.717 44.3355 311.515 44.179 311.365 43.9777C311.215 43.7765 311.124 43.5381 311.1 43.2885Z" fill="black"/>
<path d="M297.676 17.7419C297.676 26.7455 304.74 38.1208 313.985 40.2729C323.281 37.6743 330.294 26.7455 330.294 17.7419C330.294 8.73831 324.496 0.320312 313.985 0.320312C303.473 0.320312 297.676 8.74563 297.676 17.7419Z" fill="#16B3AC"/>
<path opacity="0.05" d="M329.591 22.45C329.591 22.45 327.205 31.0876 316.466 31.783C306.16 32.4491 297.778 21.1324 298.093 13.6367C297.814 14.9877 297.674 16.3637 297.676 17.7432C297.676 26.7468 304.74 38.1221 313.985 40.2742C321.693 38.1221 327.82 30.2458 329.701 22.4866L329.591 22.45Z" fill="black"/>
<path d="M324.278 138.259C326.225 137.703 328.223 131.883 328.077 128.143C327.93 124.402 322.909 108.269 322.221 105.158C321.438 101.732 321.489 99.1263 320.793 97.3475C319.769 94.7269 316.401 93.2849 316.401 93.2849C316.401 93.2849 312.009 91.1767 310.428 90.862C308.847 90.5472 308.232 91.594 308.408 92.4212C308.584 93.2483 309.14 95.3492 309.286 96.4911C309.39 97.9527 309.817 99.3731 310.538 100.649C311.365 101.974 314.74 105.143 314.872 106.907C315.003 108.672 315.977 118.253 316.533 125.207C316.994 130.902 317.565 133.259 318.802 134.767C320.039 136.275 322.814 138.691 324.278 138.259Z" fill="#FFA8A7"/>
<path d="M135.25 244.663C155.913 244.663 172.663 236.68 172.663 226.832C172.663 216.983 155.913 209 135.25 209C114.588 209 97.8379 216.983 97.8379 226.832C97.8379 236.68 114.588 244.663 135.25 244.663Z" fill="#A5A5A5"/>
<path d="M214.745 250.089C235.407 250.089 252.157 242.105 252.157 232.257C252.157 222.409 235.407 214.426 214.745 214.426C194.082 214.426 177.332 222.409 177.332 232.257C177.332 242.105 194.082 250.089 214.745 250.089Z" fill="#A5A5A5"/>
<path d="M144.662 80.2643C146.602 79.9862 148.242 80.2644 151.631 84.8906C154.661 89.0337 160.7 95.9877 160.7 95.9877C160.7 95.9877 166.161 81.6771 166 79.7519C165.839 77.8268 164.631 76.641 163.841 73.0981C163.05 69.5552 162.823 68.8817 162.23 67.8496C161.637 66.8175 163.694 66.5686 164.521 67.8496C165.348 69.1306 165.451 70.9387 166.029 70.6166C166.607 70.2945 167.003 66.4003 166.512 63.604C166.022 60.8078 167.296 60.1783 167.874 61.0713C168.209 61.5706 168.445 62.1298 168.569 62.7183C169.168 62.5961 169.788 62.6346 170.366 62.8301C170.945 63.0255 171.462 63.3709 171.863 63.8309C173.327 65.4267 174.542 67.8789 174.535 72.0293C174.528 76.1798 172.61 78.3978 172.339 80.2717C172.068 82.1456 168.679 99.516 166.278 105.387C164.77 109.047 162.684 110.159 160.137 108.014C156.704 105.123 147.283 93.5428 147.283 93.5428L144.662 80.2643Z" fill="#FFA8A7"/>
<path d="M144.662 80.2619C146.412 79.7421 148.322 80.1521 150.094 82.2749C151.865 84.3977 158.351 92.6107 158.351 92.6107C158.351 92.6107 158.16 96.8124 152.736 100.707L146.551 94.0454L144.662 80.2619Z" fill="#16B3AC"/>
<path d="M153.829 215.8L153.77 214.826C154.231 215.946 156.31 220.777 159.172 223.083C161.442 224.92 164.523 227.021 165.402 229.166C166.28 231.311 161.493 232.46 159.458 232.218C157.094 231.948 153.983 230.798 152.211 228.873C150.967 227.519 150.132 225.879 149.239 224.811C148.346 223.742 146.362 222.615 145.835 221.334C145.55 220.638 145.748 219.057 146.011 217.725C146.275 216.393 146.67 215.031 147.087 215.119C147.07 215.406 147.035 215.692 146.985 215.975C148.002 216.684 149.233 217.02 150.469 216.927C151.472 216.905 153.887 216.561 153.829 215.8Z" fill="#263238"/>
<path d="M161.228 224.685C160.496 224.129 159.816 223.587 159.171 223.068C157.173 221.45 155.555 218.603 154.604 216.655V216.619C153.875 215.042 153.558 213.307 153.681 211.575L153.769 209.27L146.449 209.416L146.984 215.96V216.128H147.02C147.437 217.526 150.797 221.121 152.73 223.448C154.018 225.022 156.39 226.991 159.149 227.189C161.77 227.438 163.014 226.545 161.228 224.685Z" fill="#FFA8A7"/>
<path d="M112.961 216.633C112.61 216.428 112.031 217.621 111.424 218.528C110.772 219.658 110.461 220.952 110.531 222.254C110.693 223.721 110.616 225.204 110.304 226.646C109.894 229.077 109.184 231.866 111.629 234.105C113.73 236.023 118.414 236.916 119.908 235.569C120.211 235.323 120.452 235.008 120.611 234.65C120.77 234.293 120.843 233.903 120.823 233.513C120.523 232.452 120.111 231.426 119.593 230.453C119.015 229.349 118.497 228.215 118.041 227.056L112.961 216.633Z" fill="#263238"/>
<path d="M119.561 212.52C119.239 212.25 118.543 221.239 118.346 223.376C118.148 225.513 118.522 226.633 118.873 228.91C119.048 229.448 119.009 230.033 118.763 230.542C118.578 230.778 118.339 230.968 118.067 231.095C117.795 231.222 117.497 231.283 117.197 231.274C115.645 231.274 114.415 230.703 113.112 229.232C112.468 228.5 112.424 226.56 112.461 225.857C112.567 224.68 112.589 223.496 112.526 222.315C112.409 221.063 112.043 219.592 112.204 218.655C112.342 217.929 112.589 217.228 112.936 216.576C113.529 215.222 113.925 211.518 113.925 211.518L119.561 212.52Z" fill="#FFA8A7"/>
<path d="M122.628 117.22C118.829 122.103 118.141 127.139 118.968 141.376C119.795 155.614 118.595 167.245 118.382 168.043C118.17 168.841 115.762 176.703 114.627 181.995C113.302 188.195 113.119 213.72 113.119 213.72C113.119 213.72 115.82 215.184 119.993 214.188C119.993 214.188 130.065 174.302 131.134 171.088C132.202 167.875 140.291 134.73 140.291 134.73L139.259 115.646L122.628 117.22Z" fill="#37474F"/>
<path d="M151.684 133.633C151.106 127.045 149.693 115.633 149.693 115.633L132.857 114.645C130.127 118.897 131.313 125.969 132.059 132.359L141.692 170.072C141.495 171.88 139.833 175.708 141.692 185.444C143.764 196.292 146.304 210.632 146.304 210.632C146.304 210.632 150.257 212.242 153.888 210.712C153.888 210.712 155.278 176.367 154.393 166.99C153.419 156.808 152.079 138.142 151.684 133.633Z" fill="#37474F"/>
<path d="M137.35 149.634L140.095 135.799C142.528 134.933 144.838 133.754 146.968 132.293C145.607 134.012 143.984 135.507 142.159 136.722L137.35 149.634Z" fill="#263238"/>
<path d="M123.646 83.7188C121.758 84.8094 118.632 85.8049 117.329 89.4796C115.55 94.6036 110.829 107.911 109.014 112.691H117.739L123.778 100.321C128.448 96.3092 127.819 85.1608 123.646 83.7188Z" fill="#FFA8A7"/>
<path d="M148.594 104.937C149.011 108.78 150.563 122.996 150.563 122.996C137.863 129.767 122.117 125.28 119.709 122.491C121.905 115.303 124.24 111.211 126.033 109.315L123.779 100.319C123.779 100.319 129.101 93.9867 123.647 83.7168L130.726 81.389L140.417 80.5472L144.663 80.2617C146.178 81.6818 148.564 86.7692 150.116 90.7293C151.112 93.284 152.188 97.3686 148.594 104.937Z" fill="#F5F5F5"/>
<path d="M123.648 83.7188C119.476 84.5386 117.602 86.5882 115.933 91.1412C114.132 96.0676 111.973 101.389 111.973 101.389C113.142 103.078 114.773 104.395 116.671 105.18C118.569 105.966 120.654 106.187 122.674 105.818L125.376 98.2856C125.376 98.2856 128.999 91.639 123.648 83.7188Z" fill="#16B3AC"/>
<path d="M124.93 104.844C125.039 105.283 128.011 109.236 129.468 110.143C130.925 111.051 126.891 112.339 126.32 114.645C125.171 119.279 132.352 125.23 141.275 126.079C131.181 127.733 121.57 124.615 119.732 122.492C121.928 115.304 124.264 111.212 126.057 109.316L124.93 104.844Z" fill="#E6E6E6"/>
<path d="M151.631 79.3607H138.067C135.886 79.3616 133.727 78.9329 131.712 78.0989C129.698 77.2649 127.867 76.0421 126.325 74.5002C124.783 72.9584 123.561 71.1279 122.727 69.1132C121.893 67.0986 121.464 64.9393 121.465 62.7589C121.465 58.7596 123.054 54.9242 125.881 52.0963C128.709 49.2684 132.545 47.6797 136.544 47.6797C138.525 47.6787 140.487 48.0681 142.317 48.8254C144.147 49.5828 145.81 50.6934 147.211 52.0937C148.612 53.494 149.724 55.1567 150.482 56.9866C151.24 58.8166 151.631 60.778 151.631 62.7589V79.3607Z" fill="#263238"/>
<path d="M146.244 54.2488C147.84 55.1931 149.809 59.1971 149.611 67.6005C149.443 74.7155 147.137 76.4797 145.951 76.9847C144.765 77.4898 142.555 77.1824 140.388 76.8164V81.0913C140.253 81.9946 139.766 82.8078 139.034 83.3531C137.262 84.4585 135.169 84.0412 133.99 83.6167C131.392 82.6797 130.879 81.4207 130.879 81.4207L130.923 71.5899C130.923 71.5899 129.65 72.8343 127.476 70.9384C125.69 69.3719 125.089 66.7367 126.48 65.3167C126.842 64.98 127.279 64.7343 127.755 64.5998C128.231 64.4653 128.732 64.4458 129.217 64.5431C129.701 64.6403 130.156 64.8515 130.543 65.1591C130.93 65.4667 131.239 65.8619 131.443 66.3122C131.443 66.3122 132.717 66.4147 133.99 64.043C133.99 64.043 133.946 57.616 135.381 56.7815C139.956 54.1317 143.192 54.2488 146.244 54.2488Z" fill="#FFA8A7"/>
<path d="M140.411 65.3597C140.42 65.4785 140.405 65.598 140.368 65.7112C140.33 65.8243 140.27 65.9288 140.192 66.0187C140.114 66.1086 140.018 66.1821 139.912 66.2348C139.805 66.2875 139.688 66.3185 139.569 66.3259C139.384 66.3433 139.198 66.3048 139.035 66.2155C138.872 66.1261 138.74 65.9899 138.655 65.8246C138.57 65.6592 138.537 65.4722 138.56 65.2878C138.582 65.1033 138.659 64.9298 138.781 64.7897C138.904 64.6496 139.065 64.5492 139.244 64.5017C139.424 64.4541 139.614 64.4615 139.789 64.5228C139.965 64.5842 140.118 64.6967 140.229 64.8459C140.339 64.995 140.403 65.174 140.411 65.3597Z" fill="#263238"/>
<g style="mix-blend-mode:multiply" opacity="0.5">
<path d="M141.903 71.8438L143.982 72.5026C143.943 72.641 143.877 72.7703 143.788 72.8826C143.698 72.995 143.587 73.0881 143.46 73.1565C143.334 73.2248 143.195 73.2669 143.052 73.2804C142.909 73.2938 142.764 73.2782 142.627 73.2346C142.352 73.1391 142.123 72.9418 141.989 72.6832C141.854 72.4246 141.823 72.1243 141.903 71.8438Z" fill="#F28F8F"/>
</g>
<path d="M148.507 62.5676L146.699 61.3159C146.774 61.1933 146.873 61.0873 146.991 61.0047C147.109 60.9221 147.242 60.8646 147.383 60.8358C147.523 60.8069 147.669 60.8074 147.809 60.8371C147.95 60.8668 148.083 60.9251 148.2 61.0085C148.442 61.1787 148.609 61.4359 148.666 61.7264C148.724 62.0168 148.667 62.3182 148.507 62.5676Z" fill="#263238"/>
<path d="M139.165 62.1812L137.108 62.9718C137.049 62.8408 137.018 62.699 137.016 62.5552C137.014 62.4115 137.042 62.2689 137.097 62.1364C137.153 62.0038 137.235 61.8842 137.339 61.7848C137.443 61.6855 137.566 61.6086 137.701 61.559C137.978 61.4558 138.285 61.4627 138.557 61.5785C138.829 61.6942 139.047 61.9099 139.165 62.1812Z" fill="#263238"/>
<path d="M148.014 65.1614C148.016 65.3381 147.967 65.5118 147.871 65.6606C147.776 65.8095 147.639 65.927 147.477 65.9984C147.316 66.0699 147.136 66.0922 146.962 66.0625C146.788 66.0329 146.626 65.9526 146.497 65.8316C146.368 65.7107 146.278 65.5545 146.237 65.3825C146.196 65.2104 146.207 65.0302 146.268 64.8643C146.329 64.6984 146.438 64.5541 146.58 64.4494C146.723 64.3447 146.893 64.2843 147.069 64.2757C147.311 64.2697 147.546 64.3593 147.723 64.525C147.9 64.6907 148.004 64.9193 148.014 65.1614Z" fill="#263238"/>
<g style="mix-blend-mode:multiply" opacity="0.5">
<path d="M143.719 64.6484L143.858 70.036L146.698 69.1576L143.719 64.6484Z" fill="#F28F8F"/>
</g>
<g style="mix-blend-mode:multiply" opacity="0.5">
<path d="M140.417 76.8202C138.126 76.5201 133.412 75.1732 132.68 73.3066C132.973 74.2513 133.55 75.0822 134.334 75.6856C135.739 76.8934 140.417 78.2476 140.417 78.2476V76.8202Z" fill="#F28F8F"/>
</g>
<path d="M134.366 48.4859L134.021 44.5331C134.28 44.4941 134.544 44.5085 134.797 44.5755C135.05 44.6424 135.287 44.7604 135.493 44.9222C135.699 45.0841 135.869 45.2863 135.994 45.5165C136.118 45.7466 136.194 45.9999 136.217 46.2606C136.257 46.7991 136.086 47.3318 135.74 47.7468C135.395 48.1618 134.902 48.4267 134.366 48.4859Z" fill="#263238"/>
<path d="M134.154 48.8808L130.955 46.5384C131.098 46.3203 131.284 46.1336 131.502 45.9896C131.72 45.8456 131.964 45.7474 132.221 45.7008C132.478 45.6543 132.741 45.6604 132.995 45.7188C133.25 45.7772 133.489 45.8867 133.7 46.0406C134.126 46.3654 134.41 46.8413 134.495 47.37C134.579 47.8987 134.457 48.4396 134.154 48.8808Z" fill="#263238"/>
<path d="M131.471 66.2965V70.0371C132.146 70.0371 132.794 69.7687 133.272 69.291C133.75 68.8132 134.018 68.1653 134.018 67.4897V64.0273L131.471 66.2965Z" fill="#263238"/>
<path d="M141.664 48.5664C145.023 48.5664 148.244 49.9006 150.619 52.2755C152.994 54.6504 154.328 57.8714 154.328 61.23V62.8697H148.135C146.741 62.8702 145.393 62.3655 144.342 61.4491C143.291 60.5326 142.608 59.2664 142.418 57.8848L142.191 62.8697C141.045 62.8705 139.94 62.4417 139.095 61.6679C138.249 60.8942 137.724 59.8317 137.624 58.69L137.55 57.8701C137.442 59.2307 136.825 60.5006 135.823 61.427C134.82 62.3534 133.506 62.8685 132.141 62.8697H131.585L130.955 53.9246L141.664 48.5664Z" fill="#263238"/>
<path d="M227.74 225.652V224.686C227.352 225.835 225.544 230.783 222.843 233.257C220.684 235.226 217.719 237.503 216.987 239.699C216.255 241.895 221.086 242.751 223.106 242.393C225.449 241.983 228.487 240.65 230.134 238.623C231.298 237.195 232.037 235.505 232.864 234.385C233.691 233.265 235.602 232.006 236.048 230.725C236.297 229.993 236.004 228.448 235.66 227.13C235.316 225.813 235.001 224.59 234.584 224.7V225.432C233.61 226.201 232.4 226.609 231.158 226.589C230.163 226.618 227.733 226.42 227.74 225.652Z" fill="#263238"/>
<path d="M220.888 234.976C221.562 234.376 222.235 233.798 222.843 233.234C224.746 231.506 226.188 228.571 227.023 226.565C227.498 225.424 227.747 224.201 227.755 222.964V219.062H234.599V225.416V225.585H234.562C234.233 227.005 231.092 230.796 229.306 233.263C228.113 234.918 225.837 237.018 223.121 237.384C220.53 237.743 219.219 236.931 220.888 234.976Z" fill="#B16668"/>
<path d="M201.028 218.903V217.922C200.647 219.071 198.832 224.019 196.138 226.494C193.978 228.463 191.014 230.739 190.282 232.935C189.55 235.131 194.381 235.988 196.401 235.629C198.744 235.212 201.774 233.887 203.429 231.859C204.585 230.432 205.324 228.741 206.159 227.621C206.993 226.501 208.897 225.242 209.343 223.961C209.592 223.229 209.299 221.684 208.955 220.367C208.633 219.159 208.289 217.827 207.879 217.937V218.669C206.905 219.437 205.694 219.846 204.453 219.825C203.451 219.869 201.02 219.671 201.028 218.903Z" fill="#263238"/>
<path d="M194.184 228.228C194.85 227.628 195.523 227.05 196.138 226.486C198.034 224.758 199.483 221.823 200.31 219.817C200.79 218.677 201.039 217.453 201.042 216.216V212.314H207.887V218.661V218.829H207.85C207.521 220.249 204.38 224.034 202.594 226.508C201.394 228.162 199.125 230.263 196.409 230.629C193.825 230.995 192.515 230.183 194.184 228.228Z" fill="#B16668"/>
<path d="M233.219 119.279C238.526 130.874 233.028 171.712 233.028 171.712C233.19 173.594 235.334 177.298 236.139 185.577C237.084 195.356 234.675 219.922 234.675 219.922C233.632 220.528 232.457 220.869 231.251 220.918C230.046 220.966 228.847 220.72 227.758 220.2C227.758 220.2 221.207 183.168 219.984 173.447C218.908 164.963 216.859 146.297 216.859 146.297L211.003 173.381C211.853 176.118 212.47 178.922 212.847 181.763C213.404 187.487 207.862 214.125 207.862 214.125C207.862 214.125 205.498 214.988 201.011 214.329C201.011 214.329 199.056 178.974 198.537 172.086C197.666 160.506 200.733 124.389 202.863 117.537L233.219 119.279Z" fill="#37474F"/>
<path d="M216.861 146.289L215.133 135.521C215.133 135.521 207.813 134.006 204.541 130.902C204.541 130.902 208.003 135.214 213.157 136.627L215.096 144.898L211.715 169.998L216.861 146.289Z" fill="#263238"/>
<path d="M213.286 78.6607C211.636 78.3885 209.943 78.5828 208.397 79.2217C206.852 79.8607 205.515 80.9188 204.539 82.2768C202.233 85.3439 193.361 111.147 193.361 111.147H201.347L212.276 89.5236L213.286 78.6607Z" fill="#B16668"/>
<path d="M223.857 78.974C230.665 79.4425 231.141 82.7292 232.839 86.294C234.096 89.0661 234.211 92.2214 233.161 95.078L228.425 108.796C228.425 108.796 230.621 114.161 233.22 119.234C221.317 125.873 206.458 122.382 202.878 117.536C202.732 116.511 203.61 108.474 204.218 103.225C202.117 97.9621 201.568 94.6315 202.454 91.1545C204.093 84.7056 210.462 78.4177 213.287 78.6446L223.857 78.974Z" fill="#F5F5F5"/>
<path d="M220.814 120.537C221.749 120.322 222.631 119.923 223.409 119.363C224.187 118.802 224.845 118.092 225.344 117.274C225.843 116.455 226.174 115.545 226.316 114.597C226.458 113.649 226.41 112.682 226.173 111.753C226.142 111.625 226.101 111.5 226.048 111.379C225.885 110.88 225.559 110.451 225.122 110.16C224.685 109.869 224.163 109.734 223.64 109.776C224.404 109.272 225.061 108.621 225.571 107.861C226.081 107.1 226.435 106.246 226.612 105.348L228.076 98.0935C228.076 98.0935 225.389 89.573 225.66 86.6523L232.49 87.0476L233.375 87.6625C234.101 90.0897 234.032 92.6853 233.178 95.0703L228.442 108.788C228.442 108.788 230.638 114.154 233.236 119.226C229.364 121.309 225.091 122.537 220.704 122.827C216.317 123.118 211.919 122.464 207.807 120.91C212.127 121.607 216.541 121.48 220.814 120.537Z" fill="#E6E6E6"/>
<path d="M248.913 112.991C248.913 112.991 242.157 99.6978 237.692 89.523C234.471 82.203 233.746 80.5194 228.615 79.7215L226.807 79.4434C224.376 87.4295 226.075 91.0529 229.252 96.5209L240.371 117.603C242.889 117.083 248.964 113.752 248.913 112.991Z" fill="#B16668"/>
<path d="M221.033 73.332H216.209C212.806 73.332 209.542 71.9801 207.135 69.5736C204.729 67.1672 203.377 63.9033 203.377 60.5001V58.348C203.377 54.9253 204.737 51.6429 207.157 49.2227C209.577 46.8025 212.859 45.4428 216.282 45.4428H220.923C224.346 45.4428 227.628 46.8025 230.048 49.2227C232.468 51.6429 233.828 54.9253 233.828 58.348V60.5001C233.828 63.9033 232.476 67.1672 230.07 69.5736C227.663 71.9801 224.399 73.332 220.996 73.332H221.033Z" fill="#263238"/>
<path d="M208.412 51.5977C206.801 52.5493 204.81 56.5972 205.008 65.0811C205.176 72.2693 207.504 74.0408 208.668 74.5532C209.832 75.0656 212.094 74.7508 214.29 74.3921V78.7036C214.29 78.7036 211.252 82.2245 211.449 84.2009C211.647 86.1773 215.841 86.6458 218.66 84.7133C220.5 83.3906 222.079 81.7375 223.315 79.8382V69.4145C223.315 69.4145 224.779 71.3909 227.217 69.7805C229.654 68.1701 229.735 64.1954 228.329 62.7607C226.924 61.3259 223.879 61.7871 223.315 63.7635C223.315 63.7635 219.816 63.8879 215.161 61.3259C213.349 60.3507 211.793 58.9612 210.62 57.2706C209.447 55.5801 208.691 53.6362 208.412 51.5977Z" fill="#B16668"/>
<path d="M213.836 63.2724C213.833 63.4506 213.883 63.6257 213.979 63.7757C214.076 63.9258 214.214 64.0442 214.377 64.1162C214.54 64.1883 214.72 64.2107 214.896 64.1808C215.072 64.1508 215.235 64.0698 215.365 63.9479C215.495 63.8259 215.586 63.6684 215.627 63.4949C215.668 63.3215 215.657 63.1398 215.595 62.9726C215.534 62.8053 215.424 62.6599 215.281 62.5544C215.137 62.4489 214.966 62.388 214.788 62.3794C214.666 62.3755 214.546 62.3955 214.432 62.4383C214.319 62.481 214.215 62.5457 214.127 62.6287C214.038 62.7116 213.967 62.8112 213.917 62.9216C213.867 63.0321 213.84 63.1513 213.836 63.2724Z" fill="#263238"/>
<path d="M212.789 69.3633L210.695 70.0367C210.735 70.1755 210.801 70.3049 210.892 70.4173C210.982 70.5297 211.094 70.6228 211.221 70.6911C211.348 70.7594 211.487 70.8014 211.631 70.8148C211.775 70.8281 211.919 70.8124 212.057 70.7687C212.334 70.6702 212.563 70.4705 212.699 70.2098C212.835 69.9491 212.867 69.6467 212.789 69.3633Z" fill="#9A4A4D"/>
<path d="M206.42 60.498L208.25 59.2243C208.172 59.1018 208.07 58.9962 207.951 58.914C207.831 58.8318 207.696 58.7746 207.554 58.7459C207.412 58.7172 207.265 58.7175 207.123 58.7469C206.981 58.7763 206.846 58.8341 206.727 58.9169C206.482 59.0899 206.313 59.3511 206.256 59.6457C206.198 59.9403 206.257 60.2457 206.42 60.498Z" fill="#263238"/>
<path d="M206.846 62.6231C206.844 62.8011 206.896 62.9754 206.993 63.1245C207.09 63.2736 207.228 63.3909 207.392 63.4619C207.555 63.5328 207.735 63.5542 207.91 63.5234C208.086 63.4926 208.248 63.411 208.377 63.2887C208.506 63.1664 208.597 63.0089 208.637 62.8356C208.678 62.6624 208.666 62.481 208.605 62.3142C208.543 62.1473 208.433 62.0023 208.29 61.8972C208.146 61.792 207.975 61.7314 207.797 61.7228C207.553 61.7188 207.316 61.8107 207.138 61.979C206.96 62.1473 206.855 62.3785 206.846 62.6231Z" fill="#263238"/>
<path d="M211.268 62.1016L211.122 67.5403L208.26 66.6546L211.268 62.1016Z" fill="#9A4A4D"/>
<path d="M214.297 74.392C216.603 74.0846 221.361 72.7157 222.1 70.8418C221.807 71.7921 221.226 72.6283 220.438 73.2354C219.018 74.4579 214.297 75.8267 214.297 75.8267V74.392Z" fill="#9A4A4D"/>
<path d="M231.967 47.0729C228.995 48.3099 229.661 50.8573 230.906 53.8292C232.15 56.8011 233.504 59.063 236.432 57.7893C237.218 57.5536 237.946 57.1552 238.568 56.6201C239.19 56.085 239.693 55.425 240.044 54.6831C240.395 53.9412 240.585 53.1338 240.604 52.3134C240.623 51.4929 240.469 50.6777 240.152 49.9206C239.835 49.1635 239.363 48.4814 238.766 47.9185C238.169 47.3557 237.46 46.9247 236.685 46.6534C235.911 46.3821 235.088 46.2767 234.27 46.3439C233.452 46.4111 232.657 46.6495 231.938 47.0436L231.967 47.0729Z" fill="#263238"/>
<path d="M229.356 49.7369L228.316 44.7813C228.635 44.7011 228.966 44.6857 229.29 44.7359C229.615 44.7862 229.926 44.9011 230.205 45.0738C230.484 45.2465 230.726 45.4735 230.916 45.7414C231.106 46.0093 231.24 46.3125 231.31 46.6332C231.448 47.3028 231.321 47.9995 230.957 48.5778C230.593 49.1562 230.019 49.5715 229.356 49.7369Z" fill="#263238"/>
<path d="M253.745 111.145H98.5977V146.668H253.745V111.145Z" fill="#16B3AC"/>
<path d="M119.7 137.099C119.566 136.975 119.47 136.815 119.422 136.638L115.652 124.399C115.639 124.324 115.639 124.247 115.652 124.172C115.652 123.93 115.799 123.813 116.099 123.813H118.251C118.415 123.796 118.58 123.835 118.72 123.923C118.829 124.025 118.9 124.162 118.917 124.311L121.347 132.853L124.107 125.533C124.16 125.381 124.248 125.243 124.363 125.131C124.491 125.034 124.65 124.99 124.81 125.006H126.01C126.162 124.994 126.315 125.032 126.442 125.116C126.551 125.236 126.631 125.378 126.676 125.533L129.414 132.853L131.866 124.311C131.903 124.169 131.97 124.036 132.064 123.923C132.205 123.833 132.373 123.794 132.54 123.813H134.684C134.985 123.813 135.131 123.93 135.131 124.172C135.14 124.247 135.14 124.324 135.131 124.399L131.303 136.623C131.263 136.804 131.172 136.97 131.039 137.099C130.89 137.184 130.719 137.223 130.549 137.209H128.828C128.67 137.221 128.512 137.177 128.382 137.084C128.26 136.95 128.166 136.794 128.104 136.623L125.315 129.113L122.519 136.623C122.458 136.798 122.358 136.955 122.226 137.084C122.09 137.176 121.928 137.22 121.765 137.209H120.176C120.01 137.218 119.846 137.18 119.7 137.099Z" fill="white"/>
<path d="M139.324 136.904C138.182 136.437 137.206 135.639 136.52 134.613C135.786 133.461 135.421 132.113 135.474 130.748C135.474 128.347 136.115 126.525 137.399 125.28C138.68 124.036 140.503 123.406 142.867 123.406C145.231 123.406 146.988 124.014 148.189 125.222C149.389 126.429 149.989 128.15 149.989 130.47C149.989 131.122 149.689 131.451 149.096 131.451H138.848C138.82 131.992 138.923 132.531 139.147 133.024C139.371 133.517 139.711 133.949 140.137 134.284C141.185 135 142.441 135.348 143.709 135.272C145.094 135.292 146.46 134.947 147.669 134.269C147.761 134.207 147.866 134.167 147.976 134.152C148.108 134.152 148.21 134.24 148.284 134.408L148.957 135.609C149.006 135.704 149.034 135.809 149.038 135.916C149.03 135.992 149.003 136.065 148.959 136.127C148.916 136.19 148.857 136.241 148.789 136.275C148.022 136.743 147.187 137.092 146.315 137.307C145.315 137.546 144.29 137.659 143.262 137.644C141.913 137.663 140.574 137.411 139.324 136.904ZM146.746 129.379C146.774 128.888 146.704 128.396 146.539 127.932C146.374 127.469 146.119 127.042 145.788 126.678C145.397 126.328 144.939 126.061 144.442 125.893C143.945 125.724 143.419 125.658 142.896 125.697C141.803 125.626 140.726 125.986 139.895 126.7C139.544 127.05 139.27 127.468 139.089 127.93C138.909 128.391 138.827 128.885 138.848 129.379H146.746Z" fill="white"/>
<path d="M152.985 136.978C152.816 136.773 152.73 136.512 152.744 136.246V119.278C152.721 118.996 152.807 118.716 152.985 118.495C153.093 118.401 153.219 118.331 153.355 118.288C153.491 118.245 153.634 118.231 153.776 118.246H155.24C155.533 118.218 155.825 118.308 156.052 118.495C156.144 118.603 156.212 118.727 156.255 118.862C156.298 118.996 156.314 119.138 156.301 119.278V136.224C156.317 136.489 156.234 136.75 156.067 136.956C155.835 137.144 155.538 137.234 155.24 137.205H153.776C153.636 137.222 153.494 137.21 153.358 137.171C153.222 137.132 153.095 137.067 152.985 136.978Z" fill="white"/>
<path d="M161.112 135.816C160.4 135.151 159.844 134.337 159.485 133.432C159.125 132.527 158.971 131.554 159.033 130.582C159.005 129.272 159.334 127.979 159.984 126.841C160.627 125.755 161.57 124.878 162.7 124.316C163.992 123.689 165.415 123.378 166.851 123.408C167.856 123.391 168.86 123.504 169.837 123.745C170.657 123.97 171.431 124.339 172.121 124.836C172.19 124.869 172.25 124.92 172.295 124.982C172.339 125.045 172.368 125.118 172.377 125.194C172.366 125.336 172.318 125.472 172.238 125.59L171.506 126.9C171.389 127.083 171.287 127.178 171.199 127.178C171.053 127.163 170.915 127.104 170.803 127.01C170.267 126.677 169.692 126.412 169.091 126.219C168.433 126.025 167.749 125.934 167.063 125.948C166.458 125.917 165.853 126.012 165.286 126.226C164.719 126.44 164.202 126.769 163.769 127.193C163.355 127.651 163.037 128.186 162.831 128.768C162.625 129.349 162.535 129.966 162.568 130.582C162.522 131.2 162.604 131.822 162.811 132.407C163.018 132.991 163.344 133.527 163.769 133.978C164.754 134.793 166.015 135.197 167.29 135.106C168.611 135.145 169.911 134.763 171.001 134.015C171.109 133.939 171.235 133.891 171.367 133.876C171.477 133.876 171.587 133.971 171.696 134.154L172.509 135.523C172.579 135.61 172.618 135.718 172.619 135.83C172.619 135.962 172.524 136.094 172.341 136.226C171.602 136.707 170.792 137.068 169.94 137.294C168.954 137.544 167.94 137.662 166.924 137.646C164.435 137.646 162.498 137.036 161.112 135.816Z" fill="white"/>
<path d="M176.766 135.733C175.497 134.296 174.797 132.446 174.797 130.529C174.797 128.612 175.497 126.761 176.766 125.324C178.077 124.05 179.943 123.406 182.366 123.406C184.789 123.406 186.656 124.05 187.973 125.324C189.251 126.756 189.957 128.609 189.957 130.529C189.957 132.448 189.251 134.301 187.973 135.733C186.656 137.007 184.782 137.644 182.366 137.644C179.95 137.644 178.077 137.007 176.766 135.733ZM185.375 133.874C186.131 132.93 186.502 131.735 186.414 130.529C186.501 129.334 186.13 128.15 185.375 127.22C184.544 126.489 183.476 126.085 182.37 126.085C181.263 126.085 180.195 126.489 179.365 127.22C178.605 128.148 178.23 129.332 178.318 130.529C178.234 131.731 178.608 132.921 179.365 133.859C180.188 134.604 181.259 135.016 182.37 135.016C183.48 135.016 184.551 134.604 185.375 133.859V133.874Z" fill="white"/>
<path d="M192.944 136.978C192.766 136.776 192.674 136.514 192.687 136.246V124.607C192.669 124.398 192.72 124.19 192.834 124.014C192.922 123.904 193.119 123.853 193.419 123.853H194.883C195.043 123.837 195.202 123.881 195.33 123.977C195.435 124.097 195.494 124.25 195.498 124.409L195.579 125.58C196.08 124.926 196.713 124.385 197.438 123.992C198.21 123.6 199.068 123.406 199.934 123.428C200.684 123.41 201.424 123.6 202.072 123.977C202.683 124.346 203.15 124.911 203.397 125.58C203.895 124.878 204.563 124.312 205.339 123.936C206.114 123.56 206.972 123.385 207.832 123.428C208.41 123.4 208.988 123.492 209.529 123.699C210.069 123.906 210.561 124.222 210.973 124.629C211.81 125.623 212.225 126.905 212.129 128.201V136.253C212.143 136.517 212.059 136.777 211.895 136.985C211.663 137.173 211.366 137.262 211.068 137.234H209.838C209.548 137.257 209.26 137.168 209.033 136.985C208.858 136.782 208.769 136.52 208.784 136.253V128.377C208.847 127.714 208.65 127.053 208.235 126.532C208.015 126.334 207.756 126.183 207.476 126.087C207.195 125.991 206.898 125.953 206.603 125.976C206.26 125.96 205.918 126.018 205.599 126.144C205.279 126.27 204.991 126.462 204.751 126.708C204.249 127.264 203.986 127.995 204.019 128.743V136.202C204.034 136.469 203.945 136.731 203.77 136.934C203.541 137.117 203.25 137.207 202.957 137.183H201.815C201.525 137.208 201.236 137.119 201.01 136.934C200.833 136.732 200.741 136.47 200.754 136.202V128.238C200.807 127.627 200.635 127.018 200.271 126.525C200.066 126.328 199.822 126.177 199.554 126.082C199.287 125.988 199.002 125.951 198.719 125.976C198.355 125.963 197.993 126.027 197.656 126.165C197.319 126.302 197.015 126.51 196.765 126.774C196.255 127.342 195.992 128.09 196.033 128.852V136.224C196.046 136.488 195.963 136.748 195.798 136.956C195.566 137.144 195.269 137.233 194.971 137.205H193.741C193.456 137.233 193.171 137.152 192.944 136.978Z" fill="white"/>
<path d="M218.596 136.905C217.459 136.447 216.483 135.662 215.792 134.65C215.058 133.498 214.693 132.15 214.745 130.785C214.745 128.384 215.387 126.562 216.67 125.317C217.951 124.073 219.774 123.443 222.138 123.443C224.503 123.443 226.26 124.051 227.46 125.259C228.66 126.467 229.261 128.187 229.261 130.507C229.261 131.159 228.961 131.488 228.368 131.488H218.134C218.107 132.029 218.209 132.568 218.433 133.061C218.657 133.554 218.997 133.986 219.423 134.321C220.47 135.038 221.727 135.386 222.995 135.309C224.38 135.329 225.746 134.983 226.955 134.306C227.047 134.244 227.152 134.204 227.262 134.189C227.394 134.189 227.497 134.277 227.57 134.445L228.243 135.646C228.292 135.741 228.32 135.846 228.324 135.953C228.316 136.029 228.289 136.102 228.245 136.164C228.202 136.227 228.143 136.278 228.075 136.312C227.308 136.781 226.473 137.129 225.601 137.344C224.601 137.583 223.576 137.696 222.548 137.681C221.192 137.69 219.848 137.426 218.596 136.905ZM226.018 129.38C226.046 128.889 225.975 128.397 225.81 127.933C225.646 127.469 225.39 127.043 225.059 126.679C224.668 126.329 224.21 126.062 223.713 125.894C223.216 125.725 222.691 125.659 222.168 125.698C221.074 125.625 219.996 125.985 219.166 126.701C218.818 127.051 218.546 127.471 218.369 127.932C218.191 128.393 218.111 128.886 218.134 129.38H226.018Z" fill="white"/>
<path d="M231.434 136.114V135.521C231.434 134.745 231.983 134.35 233.081 134.35H233.813C234.911 134.35 235.46 134.745 235.46 135.521V136.114C235.46 136.875 234.911 137.256 233.813 137.256H233.081C231.983 137.236 231.434 136.856 231.434 136.114ZM232.034 131.722C231.875 131.499 231.8 131.227 231.822 130.953L231.661 119.278C231.636 118.996 231.719 118.716 231.895 118.495C232.004 118.401 232.131 118.331 232.268 118.288C232.405 118.246 232.55 118.231 232.693 118.246H234.237C234.38 118.231 234.524 118.246 234.662 118.288C234.799 118.331 234.926 118.401 235.035 118.495C235.21 118.716 235.294 118.996 235.269 119.278L235.079 130.946C235.101 131.219 235.026 131.491 234.867 131.715C234.663 131.885 234.4 131.969 234.135 131.949H232.766C232.636 131.968 232.503 131.957 232.378 131.918C232.252 131.878 232.137 131.812 232.041 131.722H232.034Z" fill="white"/>
<path d="M98.598 117.557C98.1441 118.823 97.134 119.423 96.402 120.682C95.67 121.941 95.3626 125.704 96.1897 127.27C96.8203 128.369 97.7063 129.3 98.7728 129.984C99.8392 130.669 101.055 131.086 102.317 131.201C103.375 131.245 104.42 130.952 105.303 130.367C105.714 130.091 106.078 129.749 106.379 129.356C106.654 128.935 106.862 128.473 106.994 127.988C107.004 127.949 107.025 127.914 107.053 127.885C107.092 127.86 107.137 127.845 107.184 127.841C107.505 127.795 107.807 127.661 108.055 127.453C108.179 127.349 108.279 127.219 108.347 127.073C108.416 126.926 108.451 126.766 108.451 126.604C108.426 126.398 108.353 126.201 108.237 126.029C108.121 125.858 107.966 125.716 107.785 125.616C107.415 125.426 107.024 125.278 106.621 125.177C105.647 124.862 104.747 124.372 103.795 124.013C101.867 123.327 100.097 122.259 98.5907 120.873L98.598 117.557Z" fill="#FFA8A7"/>
<path d="M253.751 118.699C254.205 119.98 255.215 120.588 255.947 121.869C256.679 123.15 257.001 126.993 256.167 128.552C255.527 129.668 254.627 130.614 253.544 131.308C252.461 132.003 251.226 132.426 249.945 132.541C248.927 132.612 247.914 132.351 247.057 131.796C246.2 131.242 245.547 130.424 245.194 129.467C244.528 127.161 245.677 126.29 248.444 125.243C250.403 124.55 252.201 123.467 253.729 122.059L253.751 118.699Z" fill="#B16668"/>
<path d="M185.926 108.057C190.025 108.724 191.203 111.146 191.203 111.146H187.851C187.851 111.146 187.426 112.274 188.583 116.497C188.978 117.961 186.789 118.02 186.724 117.464C186.328 118.371 183.444 119.66 181.292 118.196C179.316 116.885 178.437 114.88 178.876 111.124C179.601 106.945 185.194 107.94 185.926 108.057Z" fill="#B16668"/>
</svg>
