<svg width="320" height="320" viewBox="0 0 320 320" fill="none" xmlns="http://www.w3.org/2000/svg">
<path d="M160.054 9.4507C161.066 9.57039 152.722 12.0386 151.365 12.5417C145.385 14.7585 139.971 18.3874 135.407 22.8192C121.792 36.0391 118.799 51.7531 122.922 69.7489C127.111 88.0349 136.035 104.073 148.507 117.981C176.399 149.089 209.949 174.673 219.078 217.938C227.446 257.599 211.753 316.291 159.948 310.445C158.937 310.331 167.291 307.902 168.662 307.404C174.677 305.218 180.133 301.614 184.743 297.199C198.547 283.978 201.668 268.117 197.597 249.971C193.479 231.615 184.579 215.473 172.002 201.58C144.729 171.453 112.03 148.331 101.393 106.744C91.0519 66.3118 105.907 3.04835 160.054 9.4507Z" fill="#D2DC02"/>
<path d="M95.662 121.702C93.074 114.908 86.8263 109.957 79.5556 109.957H26C17.1634 109.957 10 117.12 10 125.957V193.957C10 202.794 17.1634 209.957 26 209.957H94C102.837 209.957 110 217.12 110 225.957V293.957C110 302.794 117.19 310.058 125.959 308.968C138.86 307.365 151.462 303.831 163.601 298.526C164.081 298.376 164.486 298.249 164.807 298.147C165.061 298.066 165.19 298.023 165.235 298.008C165.255 298.001 165.258 298 165.246 298.004C169.782 296.356 174.077 293.566 177.825 289.976C188.62 279.637 191.3 267.589 187.839 252.159C184.136 235.655 176.126 221.036 164.588 208.29C158.362 201.413 151.829 194.894 145.143 188.223L143.894 186.977C136.844 179.94 129.642 172.705 122.935 165.047C112.01 152.573 102.131 138.685 95.662 121.702Z" fill="#16B3AC"/>
<path d="M223.659 198.268C226.257 205.036 232.496 209.957 239.745 209.957H294.001C302.837 209.957 310.001 202.794 310.001 193.957V125.957C310.001 117.12 302.837 109.957 294.001 109.957H226.001C217.164 109.957 210.001 102.794 210.001 93.957V25.957C210.001 17.1205 202.811 9.90729 194.049 11.0508C180.103 12.8709 166.23 16.7808 156.464 21.3937C155.986 21.5458 155.583 21.6743 155.264 21.7779C155.024 21.8561 154.898 21.8987 154.852 21.9144L154.851 21.9147C154.827 21.9227 154.826 21.9233 154.841 21.9176C150.338 23.587 146.081 26.3926 142.373 29.993C131.742 40.3161 129.166 52.2247 132.669 67.515C136.437 83.9579 144.474 98.5038 155.952 111.305C161.65 117.66 167.581 123.769 173.643 130.014C174.825 131.231 176.011 132.453 177.202 133.683C184.427 141.148 191.753 148.851 198.526 157.016C208.583 169.142 217.609 182.508 223.659 198.268Z" fill="#16B3AC"/>
</svg>
