<svg width="20" height="20" viewBox="0 0 20 20" fill="none" xmlns="http://www.w3.org/2000/svg">
<path d="M15.0197 5.86836C14.0438 4.8955 12.8018 4.23331 11.4503 3.9653C10.0987 3.69729 8.69793 3.83544 7.42473 4.36235C6.15154 4.88926 5.06286 5.78132 4.29593 6.92609C3.529 8.07086 3.11817 9.41707 3.11523 10.7949" stroke="#13131A" stroke-width="1.5" stroke-miterlimit="10" stroke-linecap="round"/>
<path d="M14.4575 2.29102L15.1506 5.10086C15.1825 5.22335 15.1892 5.35102 15.1703 5.47617C15.1514 5.60133 15.1075 5.72137 15.0409 5.82904C14.9744 5.93672 14.8867 6.02978 14.7832 6.10263C14.6798 6.17548 14.5626 6.2266 14.4388 6.2529L11.6289 6.95536" stroke="#13131A" stroke-width="1.5" stroke-linecap="round" stroke-linejoin="round"/>
<path d="M4.98047 14.1298C5.95627 15.1026 7.19826 15.7647 8.54988 16.0328C9.90138 16.3008 11.3021 16.1626 12.5753 15.6358C13.8485 15.1089 14.9372 14.2168 15.7042 13.072C16.471 11.9272 16.8819 10.581 16.8848 9.20312" stroke="#13131A" stroke-width="1.5" stroke-miterlimit="10" stroke-linecap="round"/>
<path d="M5.54163 17.7073L4.84854 14.8975C4.81667 14.775 4.80995 14.6473 4.8288 14.5221C4.84765 14.397 4.89166 14.277 4.95819 14.1693C5.02471 14.0616 5.11238 13.9685 5.21587 13.8956C5.31937 13.8229 5.43656 13.7717 5.56037 13.7454L8.37022 13.043" stroke="#13131A" stroke-width="1.5" stroke-linecap="round" stroke-linejoin="round"/>
</svg>
