<svg width="24" height="24" viewBox="0 0 24 24" fill="none" xmlns="http://www.w3.org/2000/svg">
<path opacity="0.4" d="M21.25 12C21.2516 13.2141 21.0135 14.4167 20.5493 15.5389C20.0852 16.6611 19.4041 17.6809 18.545 18.54C17.6859 19.3991 16.6656 20.0806 15.5426 20.5456C14.4196 21.0106 13.2158 21.25 12 21.25C10.6915 21.2531 9.39742 20.9767 8.20459 20.4394L4.33751 21.0116C4.14525 21.0433 3.94812 21.0275 3.76336 20.9656C3.57861 20.9037 3.41183 20.7976 3.27761 20.6565C3.14339 20.5154 3.04581 20.3436 2.99339 20.1562C2.94096 19.9687 2.93529 19.7713 2.97688 19.5812L3.51397 15.6595C3.00433 14.5069 2.74404 13.2599 2.7501 12C2.74854 10.7858 2.98663 9.58326 3.45079 8.46107C3.91494 7.33888 4.59603 6.31908 5.45513 5.45998C6.31422 4.60088 7.33446 3.91935 8.45749 3.45434C9.58052 2.98934 10.7843 2.75 12 2.75C13.2158 2.75 14.4196 2.98934 15.5426 3.45434C16.6656 3.91935 17.6859 4.60088 18.545 5.45998C19.4041 6.31908 20.0852 7.33888 20.5493 8.46107C21.0135 9.58326 21.2516 10.7858 21.25 12Z" fill="#16B3AC" stroke="#16B3AC" stroke-width="0.5" stroke-linecap="round" stroke-linejoin="round"/>
<path d="M10.9087 14.1104V13.4278L10.9097 13.4122C10.927 12.8613 11.1069 12.3274 11.4273 11.879C11.7475 11.4309 12.1942 11.088 12.7095 10.8926L12.7261 10.8858L12.7427 10.88C12.9331 10.8155 13.1081 10.7119 13.2554 10.5753H13.2564C13.4037 10.4386 13.5198 10.2718 13.5982 10.087C13.6765 9.90207 13.7147 9.70263 13.7105 9.50202C13.7064 9.30898 13.6617 9.11939 13.5816 8.94343C13.4514 8.70309 13.2694 8.49476 13.0464 8.33601C12.8179 8.17335 12.5537 8.06608 12.2759 8.02351L12.2612 8.02155L12.2466 8.01862C11.8344 7.94291 11.4085 8.0062 11.0366 8.19929C10.665 8.39234 10.3692 8.70423 10.1948 9.08405C9.96439 9.58578 9.37049 9.80552 8.86867 9.57526C8.36674 9.34486 8.14607 8.75102 8.37648 8.24909C8.73662 7.46455 9.34867 6.82286 10.1148 6.42487C10.872 6.03164 11.7377 5.8995 12.5777 6.04694L12.5786 6.04597C12.5845 6.04686 12.5904 6.04895 12.5962 6.04987C12.6 6.05057 12.6041 6.05015 12.6079 6.05085L12.6069 6.05183C13.1828 6.14452 13.7301 6.36768 14.2056 6.70612C14.6287 7.00716 14.9847 7.39129 15.2525 7.83405L15.3618 8.02741L15.3716 8.04597L15.3804 8.0655C15.5874 8.50179 15.7003 8.9769 15.7105 9.46003C15.7206 9.94309 15.6286 10.4234 15.44 10.8682C15.2513 11.3129 14.9701 11.7124 14.6157 12.0411C14.2704 12.3615 13.8623 12.6061 13.4175 12.7618C13.2715 12.8172 13.1458 12.9154 13.0552 13.0421C12.9646 13.1688 12.9136 13.3195 12.9087 13.4747V14.1104C12.9086 14.6626 12.4609 15.1104 11.9087 15.1104C11.3566 15.1103 10.9088 14.6626 10.9087 14.1104Z" fill="#16B3AC"/>
<path d="M11.8887 17.0117H11.895" stroke="#13131A" stroke-width="1.5" stroke-linecap="round" stroke-linejoin="round"/>
<path d="M11.8945 16.0117L11.9971 16.0166C12.5014 16.0677 12.8945 16.4939 12.8945 17.0117C12.8945 17.5295 12.5014 17.9557 11.9971 18.0068L11.8945 18.0117H11.8887C11.3364 18.0117 10.8887 17.564 10.8887 17.0117C10.8887 16.4594 11.3364 16.0117 11.8887 16.0117H11.8945Z" fill="#16B3AC"/>
</svg>
