<svg width="24" height="24" viewBox="0 0 24 24" fill="none" xmlns="http://www.w3.org/2000/svg">
<path fill-rule="evenodd" clip-rule="evenodd" d="M17.438 6.2364C17.478 6.30633 17.548 6.35627 17.638 6.35627C20.038 6.35627 21.998 8.3141 21.998 10.7114V16.6448C21.998 19.0422 20.038 21 17.638 21H6.35805C3.94805 21 1.99805 19.0422 1.99805 16.6448V10.7114C1.99805 8.3141 3.94805 6.35627 6.35805 6.35627C6.43805 6.35627 6.51805 6.31632 6.54805 6.2364L6.60805 6.11654C6.64252 6.04397 6.67791 5.96943 6.71384 5.89376C6.96966 5.35492 7.25267 4.75879 7.42805 4.40844C7.88805 3.50943 8.66805 3.00999 9.63805 3H14.348C15.318 3.00999 16.108 3.50943 16.568 4.40844C16.7255 4.72308 16.9655 5.2299 17.1968 5.71839C17.2445 5.81921 17.2919 5.91924 17.338 6.01665L17.438 6.2364ZM17.9984 9.00517C17.9984 9.55766 18.4404 9.99964 18.9929 9.99964C19.5454 9.99964 19.9984 9.55766 19.9984 9.00517C19.9984 8.45268 19.5454 7.99964 18.9929 7.99964C18.4404 7.99964 17.9984 8.45268 17.9984 9.00517ZM9.86291 11.8885C10.4431 11.3083 11.1962 10.9996 11.9986 10.9996C12.801 10.9996 13.554 11.3083 14.1219 11.8762C14.6898 12.4441 14.9984 13.1972 14.9984 13.9996C14.9861 15.654 13.6528 16.9996 11.9986 16.9996C11.1962 16.9996 10.4431 16.691 9.87525 16.1231C9.30738 15.5552 8.99876 14.8021 8.99876 13.9996V13.9873C8.98641 13.2095 9.29504 12.4564 9.86291 11.8885ZM15.5219 17.3654C14.6186 18.2687 13.3718 18.8285 11.9978 18.8285C10.662 18.8285 9.41517 18.3069 8.46099 17.3654C7.51954 16.4112 6.99792 15.1644 6.99792 13.8285C6.9852 12.5053 7.50681 11.2585 8.44827 10.3043C9.40244 9.35011 10.662 8.82848 11.9978 8.82848C13.3337 8.82848 14.5932 9.35011 15.5346 10.2916C16.4761 11.2458 16.9977 12.5053 16.9977 13.8285C16.985 15.2152 16.4252 16.4621 15.5219 17.3654Z" fill="#F5F5FA"/>
</svg>
